<?xml version="1.0" encoding="UTF-8"?>
<svg width="1200pt" height="1200pt" version="1.1" viewBox="0 0 1200 1200" xmlns="http://www.w3.org/2000/svg">
 <g>
  <path d="m106.8 531.6c3.5977 62.398-8.4023 127.2 9.5977 188.4 3.6016 10.801 10.801 1.1992 14.398-3.6016 6-9.6016 9.6016-24 8.3984-36-8.3984-64.801-3.6016-130.8-12-195.6-7.1992-57.602-26.398-112.8-55.199-163.2-2.3984-4.8008-13.199 21.602-9.6016 28.801 24.004 57.602 39.605 118.8 44.406 181.2z"/>
  <path d="m172.8 844.8c-4.8008 1.1992-8.3984 10.801-9.6016 14.398-3.6016 7.1992-4.8008 15.602-4.8008 24 0 9.6016 1.1992 19.199 8.3984 25.199 4.8008 3.6016 9.6016 7.1992 15.602 8.3984 3.6016 1.1992 7.1992-3.6016 9.6016-6 3.6016-6 6-13.199 7.1992-19.199 1.1992-7.1992 2.3984-14.398 2.3984-20.398 0-3.6016-1.1992-8.3984-4.8008-9.6016-2.3984-1.1992-3.6016-2.3984-6-3.6016-3.6016-3.6016-7.1992-7.1992-10.801-12-2.3945-2.3945-3.5977-2.3945-7.1953-1.1953 1.1992 0 1.1992 0 0 0z"/>
  <path d="m277.2 354c13.199 56.398 28.801 112.8 38.398 170.4 9.6016 61.199 13.199 121.2 18 182.4 1.1992 9.6016 4.8008 12 12 4.8008 7.1992-8.3984 10.801-24 10.801-34.801 1.1992-66-6-130.8-18-195.6-10.801-58.801-24-123.6-49.199-177.6-1.1992-9.6016-9.6016 2.3984-10.801 4.8008-3.6016 8.3984-6 19.199-3.6016 27.602 1.1992 4.8008 2.3984 9.6016 3.6016 14.398-2.3984 1.207-2.3984 2.4062-1.1992 3.6055z"/>
  <path d="m391.2 904.8c3.6016-2.3984 6-4.8008 8.3984-8.3984 6-8.3984 8.3984-19.199 9.6016-30 1.1992-4.8008 1.1992-10.801 0-15.602 0-2.3984-1.1992-7.1992-4.8008-7.1992v-1.1992c0-2.3984-2.3984-4.8008-4.8008-6-8.3984-1.1992-13.199 9.6016-16.801 15.602-4.8008 10.801-8.3984 22.801-8.3984 33.602 0 4.8008 0 13.199 3.6016 18 4.8008 2.3945 9.6016 3.5938 13.199 1.1953zm6-55.199c0 1.1992-1.1992 1.1992-1.1992 2.3984v-1.1992s0-1.1992 1.1992-1.1992zm-3.5977 4.7969c-1.1992 2.3984-2.3984 4.8008-3.6016 7.1992 1.1992-1.1992 1.1992-3.6016 2.3984-4.8008 1.2031-1.1953 1.2031-2.3984 1.2031-2.3984z"/>
  <path d="m512.4 326.4c-2.3984-12-6-24-7.1992-36-2.3984-22.801-16.801 13.199-16.801 19.199-10.801 61.199 8.3984 127.2 19.199 188.4 12 64.801 18 128.4 26.398 193.2 1.1992 8.3984 3.6016 8.3984 9.6016 3.6016 7.1992-6 8.3984-21.602 9.6016-28.801 6-63.602-6-124.8-18-187.2-8.3984-42-21.602-85.199-26.398-128.4 1.1992-2.3984 3.6016-4.8008 3.6016-6-0.003906-4.7969 1.1992-12-0.003906-18z"/>
  <path d="m562.8 878.4c1.1992 2.3984 3.6016 2.3984 6 1.1992 2.3984-1.1992 6-2.3984 8.3984-3.6016 2.3984-1.1992 3.6016-2.3984 4.8008-4.8008 2.3984-2.3984 3.6016-4.8008 4.8008-8.3984 2.3984-6 4.8008-13.199 6-20.398 1.1992-6 2.3984-13.199 1.1992-19.199 0-2.3984-1.1992-3.6016-1.1992-6 0-2.3984-2.3984-4.8008-4.8008-6h-3.6016-3.6016c-2.3984 0-4.8008 1.1992-7.1992 3.6016-1.1992 1.1992-2.3984 3.6016-3.6016 4.8008-2.3984 4.8008-4.8008 9.6016-7.1992 14.398-1.1992 4.8008-2.3984 9.6016-3.6016 13.199-1.1992 8.3984-2.3984 15.602-1.1992 24 2.4023 2.4023 3.6055 4.8008 4.8047 7.1992z"/>
  <path d="m1023.6 508.8c-85.199 6-169.2 22.801-249.6 52.801-8.3984 3.6016-14.398 39.602-6 37.199 79.199-22.801 160.8-38.398 243.6-43.199 15.598 0 20.398-46.801 12-46.801z"/>
  <path d="m1080 459.6c-36-2.3984-72-4.8008-108-4.8008-7.1992 0-14.398 30-7.1992 31.199 43.199 8.3984 87.602 9.6016 130.8 19.199 6 1.1992 13.199 2.3984 18 6 2.3984 1.1992 3.6016 2.3984 4.8008 3.6016-2.4023 1.1992-2.4023 1.1992-3.6016 2.3984-16.801 16.801-36 32.398-55.199 46.801-7.1992 6-9.6016 16.801-10.801 25.199 0 2.3984-1.1992 21.602 4.8008 16.801 25.199-16.801 51.602-36 69.602-60 12-16.801 22.801-45.602 14.398-66-9.6016-19.199-38.402-19.199-57.602-20.398z"/>
 </g>
</svg>
