<?xml version="1.0" encoding="UTF-8"?>
<svg width="1200pt" height="1200pt" version="1.1" viewBox="0 0 1200 1200" xmlns="http://www.w3.org/2000/svg">
 <g>
  <path d="m735.76 257.44h0.14844v0.35547h-0.14844z"/>
  <path d="m879.24 225.43h96.066v96.066h-96.066z"/>
  <path d="m1018.8 319.15h96.066v96.066h-96.066z"/>
  <path d="m944.57 840.25h96.066v96.066h-96.066z"/>
  <path d="m876.6 653.53h96.066v96.066h-96.066z"/>
  <path d="m784.41 780.09h96.066v96.066h-96.066z"/>
  <path d="m759.02 156.26h96.066v96.066h-96.066z"/>
  <path d="m885.19 433.61h96.066v96.066h-96.066z"/>
  <path d="m770.16 525.68h96.066v96.066h-96.066z"/>
  <path d="m763.79 738.29v-96.121l-96.156 0.074219v96.047z"/>
  <path d="m879.74 1104.5c-17.137-56.871-29.203-115.15-36.066-174.15h-108.12v-96.02h-96.047v-96.066h-96.066v-96.066h96.066v-96.93l96.148 0.003906v-95.625h96.027v-96.086l-95.926-0.10156v-95.691l-96.32-0.054688 0.003906-96.086 96.18-0.23438-0.003906-68.09c-45.922-14.859-93.633-23.465-141.85-25.594-235.59-12.188-437.34 139.12-430.85 347.81 0.85156 27.543 5.6719 68.109 5.5586 94.613-0.21484 94.145-81.676 132.82-83.242 162.78-2.5781 49.199 55.219 33.836 75.602 103.43 25.875 88.359-11.25 189.12 109.2 182.9 48.047-1.9297 126.13-20.578 159.59 10.539 21.336 19.836 38.523 106.43 45.227 144.74v-0.003906c0.90625 5.1484 3.6016 9.8125 7.6094 13.172 4.0078 3.3594 9.0742 5.1953 14.301 5.1836h361.59c6.9922 0.019531 13.582-3.2578 17.793-8.8398 4.207-5.582 5.543-12.82 3.6016-19.539zm-426.09-750.64h-96.066v-96.094h96.066zm96-59.363h96.062v96.066h-96.062zm-71.879 225.77v-96.074h96.066v96.074zm121.08 432.82h-96.066v-96.086h96.066z"/>
 </g>
</svg>
