<?xml version="1.0" encoding="UTF-8"?>
<svg width="1200pt" height="1200pt" version="1.1" viewBox="0 0 1200 1200" xmlns="http://www.w3.org/2000/svg">
 <g>
  <path d="m247.06 484.06c-4.7344-0.003906-9.0039-2.8555-10.816-7.2305-1.8164-4.375-0.81641-9.4141 2.5312-12.766l288.95-288.96c4.5781-4.5781 12-4.5781 16.578 0 4.5742 4.5781 4.5742 11.996 0 16.574l-288.96 288.96c-2.1953 2.1992-5.1797 3.4336-8.2891 3.4297z"/>
  <path d="m703.51 336.89c-4.7383 0-9.0117-2.8555-10.828-7.2344-1.8125-4.3789-0.80859-9.4219 2.543-12.773l283.41-283.41c4.5977-4.4414 11.906-4.3789 16.426 0.14063 4.5234 4.5195 4.5898 11.828 0.14844 16.426l-283.41 283.42c-2.1953 2.1992-5.1797 3.4336-8.2891 3.4297z"/>
  <path d="m600 789.49c-4.7383-0.003906-9.0078-2.8594-10.82-7.2383s-0.80859-9.418 2.543-12.77l266.85-266.32c4.6055-4.4336 11.914-4.3594 16.43 0.16797 4.5156 4.5273 4.5664 11.836 0.11719 16.426l-266.89 266.31c-2.1836 2.1797-5.1445 3.4102-8.2305 3.4219z"/>
  <path d="m435.08 318.93c5.8359 24.723-9.4727 49.492-34.195 55.328-24.723 5.8359-49.496-9.4727-55.332-34.195-5.8359-24.723 9.4766-49.496 34.199-55.332 24.723-5.8359 49.492 9.4766 55.328 34.199"/>
  <path d="m1031.7 60.375c-20.551-24.039-50.594-37.879-82.219-37.875h-198.56c-30.469 0.03125-59.52 12.883-80.031 35.414-20.516 22.531-30.598 52.652-27.781 82.992l6.375 68.531c-14.062-1.875-28.406-3.1875-43.125-3.9375-9.5625-0.46875-19.125-0.65625-28.594-0.65625-15.852-18.699-35.566-33.746-57.785-44.102-22.219-10.359-46.418-15.781-70.934-15.898-39.469-0.09375-78.75-0.09375-118.22 0-45.121 0.37891-88.273 18.555-120.07 50.574-31.793 32.023-49.66 75.301-49.715 120.43-0.09375 7.3125-0.09375 14.531 0 21.656 0.023438 23.941 5.0586 47.609 14.777 69.488 9.7188 21.879 23.91 41.477 41.66 57.543-3.5312 19.227-4.9766 38.777-4.3125 58.312 0.75 25.219 5.1562 62.156 5.0625 86.344-0.1875 85.969-74.531 121.22-75.938 148.59-2.3438 44.906 50.344 30.844 69 94.406 23.531 80.625-10.312 172.59 99.562 166.88 43.875-1.7812 115.12-18.75 145.69 9.6562 19.5 18.094 35.156 97.031 41.25 132 0.8125 4.7031 3.2617 8.9688 6.918 12.039 3.6523 3.0742 8.2773 4.7539 13.051 4.7422h330c6.3711 0.007812 12.375-2.9805 16.207-8.0703 3.8359-5.0859 5.0547-11.684 3.293-17.805-10.969-37.781-29.906-109.97-33.656-169.12-2.3438-36.844 8.8125-87.656 31.312-116.91 89.812-116.53 129.66-217.59 110.91-341.81-8.043-59.883-29.898-117.08-63.844-167.06l19.125-0.1875c25.863 0.14453 50.914-9.0352 70.559-25.855 19.645-16.824 32.57-40.16 36.41-65.738l18.375-117.56c4.8945-31.227-4.1523-63.027-24.75-87zm-365.25 78.375c-2.2266-23.809 5.668-47.457 21.75-65.156 16.027-17.711 38.832-27.766 62.719-27.656h51.945c-1.5078 40.648-24.254 65.945-42.684 86.352-12.047 13.332-21.562 23.859-22.219 36.309-1.3203 25.453 13.781 35.41 27.113 44.195 15.914 8.4961 27.645 23.156 32.438 40.547 4.6836 18.145 7.6016 36.699 8.7188 55.406 0.94141 12.957 2.6484 25.844 5.1094 38.598-18.863 14.344-38.258 28.52-51.234 37.219 1.4062-11.062 3.6562-25.312 6-37.875 0.58984-3.2812-0.23438-6.6641-2.2695-9.3047-2.0352-2.6445-5.0938-4.3047-8.418-4.5703-19.984-1.4375-38.809-9.9297-53.109-23.957-14.305-14.027-23.16-32.684-24.984-52.637l-4.0312-43.125zm-481.97 198.56c-0.09375-7.0312-0.09375-13.969 0-21.281 0.003906-38.957 15.391-76.34 42.816-104.01 27.422-27.672 64.664-43.391 103.62-43.742 39.375-0.09375 78.719-0.09375 118.03 0 36.102 0.19141 70.855 13.715 97.594 37.969 31.047 28.059 48.785 67.934 48.844 109.78v21.469c-0.019531 35.996-13.156 70.75-36.953 97.754-23.797 27.008-56.621 44.414-92.328 48.965-3.5078 0.46094-6.6328 2.4531-8.5312 5.4375-1.8594 3.0078-2.2695 6.6875-1.125 10.031 2.9062 8.4375 5.8125 18.375 7.9688 26.812-14.625-9.4688-36.188-24.75-54.844-38.812-2.0352-1.5078-4.5-2.3281-7.0312-2.3438h-71.625c-40.777-0.14062-79.637-17.344-107.16-47.438-25.227-27.43-39.242-63.328-39.281-100.59zm544.5 480.47s-78.094 57.844-79.125 50.438c-1.7812-11.25 9.9375-64.125 9.9375-64.125-41.578-17.152-75.285-49.156-94.57-89.785-19.285-40.629-22.766-86.984-9.7617-130.04 13-43.055 41.555-79.73 80.102-102.9 38.551-23.164 84.34-31.16 128.46-22.434 44.121 8.7305 83.414 33.559 110.24 69.656 26.824 36.102 39.262 80.887 34.891 125.65-4.3711 44.762-25.238 86.297-58.543 116.53-33.301 30.227-76.656 46.984-121.63 47.012zm304.31-673.97-18.375 117.56c-3.0195 20.047-13.164 38.336-28.578 51.508-15.41 13.172-35.055 20.348-55.328 20.211l-36.844 0.375-61.473 0.65625c-1.332-8.5508-2.2305-17.812-3.1328-27.516h0.003907c-1.25-20.215-4.4531-40.262-9.5625-59.859-6.3281-22.723-21.453-41.988-42.031-53.523-12.805-8.4375-17.195-11.945-16.594-23.438 0.21484-4.1445 9.0664-13.941 16.191-21.824 18.918-20.945 47.176-52.359 48.75-102.07h123.16c24.777 0.003906 48.312 10.836 64.426 29.652 16.117 18.82 23.199 43.742 19.387 68.223z"/>
  <path d="m398.44 409.43c26.723-0.25391 53.113-5.9414 77.57-16.715 24.453-10.777 46.461-26.41 64.688-45.957 4.0898-4.5234 6.3594-10.41 6.3594-16.512 0-6.1016-2.2695-11.984-6.3594-16.508-20.344-21.59-45.125-38.512-72.641-49.59-27.516-11.082-57.109-16.059-86.734-14.59-27.227 0.13281-54.094 6.2461-78.695 17.91-24.602 11.664-46.34 28.594-63.676 49.59-3.7773 4.7812-5.6445 10.797-5.2461 16.879 0.40234 6.0781 3.043 11.797 7.4141 16.043 40.254 38.91 94.262 60.32 150.24 59.562 2.3359-0.011718 4.6953-0.039062 7.0781-0.11328zm-141.07-77.926c30.82-37.012 76.469-58.449 124.63-58.527 55.52-1.4805 108.3 19.359 141.11 56.336v-0.003906c0.30469 0.22656 0.48437 0.58203 0.48437 0.96094 0 0.38281-0.17969 0.73828-0.48437 0.96094-16.109 17.148-35.527 30.844-57.086 40.258s-44.801 14.352-68.324 14.512c-25.691 1.1836-51.355-2.8672-75.434-11.91-24.074-9.043-46.062-22.887-64.621-40.691-0.98438-0.99609-0.58984-1.5195-0.28125-1.8945z"/>
  <path d="m884.11 227.81h-48.797c-6.4727 0-11.719 5.2461-11.719 11.719s5.2461 11.719 11.719 11.719h48.824c2.7109 0.007812 5.2617 1.2969 6.8711 3.4766 1.9062 2.5938 2.1875 6.0391 0.73828 8.9062-1.4492 2.8711-4.3906 4.6836-7.6094 4.6875h-36.957c-6.4688 0-11.719 5.25-11.719 11.719 0 6.4727 5.25 11.719 11.719 11.719h36.93c11.293-0.19141 21.645-6.3281 27.238-16.141 5.5898-9.8125 5.5898-21.848 0-31.66-5.5938-9.8164-15.945-15.949-27.238-16.145z"/>
  <path d="m751.29 522.58c-32.055-10.18-78.488 2.8125-105.12 47.27-1.668 2.668-2.1914 5.8906-1.4531 8.9492 0.73828 3.0547 2.6719 5.6875 5.3672 7.3047 2.6992 1.6172 5.9336 2.082 8.9766 1.2891 3.043-0.78906 5.6406-2.7734 7.207-5.4961 20.164-33.695 55.246-44.23 77.98-36.957 38.008 11.898 46.754 56.438 35.68 92.316h0.003906c-8.9844 27.637-29.672 49.926-56.57 60.938-13.777 5.4219-29.359 3.5625-41.473-4.9531-5.3203-3.7109-12.641-2.4102-16.352 2.9062-3.7109 5.3203-2.4102 12.641 2.9062 16.352 11.09 7.9062 24.367 12.164 37.988 12.188 8.3555-0.054688 16.648-1.5117 24.523-4.3047 33.965-13.453 60.129-41.395 71.324-76.172 14.449-46.734 1.4531-105.21-50.988-121.63z"/>
  <path d="m760.89 583.43c2.3555-6.0273-0.60938-12.824-6.6289-15.195-14.594-4.7383-30.492-3.2891-43.988 4.0117-4.7773 2.3203-9.25 5.2227-13.32 8.6328-0.13281 0.074219-0.22656 0.1875-0.34766 0.26172-0.25391 0.21484-0.5625 0.40234-0.81641 0.61719v0.003906c-2.1953 1.7148-4.2578 3.5977-6.168 5.625-5.0977 5.0039-9.6484 10.539-13.574 16.508-3.4023 5.3555-1.9297 12.441 3.3242 15.992 5.2539 3.5547 12.379 2.2852 16.082-2.8672 3.1133-4.7422 6.7188-9.1406 10.762-13.125 0.69531-0.73047 1.3867-1.4258 2.1367-2.1172 2.0781-0.48047 4.2227-0.58594 6.3398-0.32031 5.9727 1.4492 11.219 5.0078 14.773 10.023 3.4883 5.4531 10.738 7.043 16.191 3.5547 5.4531-3.4922 7.043-10.738 3.5508-16.191-2.4492-3.6367-5.375-6.9297-8.6992-9.7891 1.7617 0.12891 3.5 0.44141 5.1953 0.9375 6.0039 2.3594 12.789-0.57031 15.188-6.5625z"/>
 </g>
</svg>
