<?xml version="1.0" encoding="UTF-8"?>
<svg width="1200pt" height="1200pt" version="1.1" viewBox="0 0 1200 1200" xmlns="http://www.w3.org/2000/svg">
 <path d="m1135.2 169.2c-9.6016-30-50.398-33.602-76.801-38.398-42-7.1992-84-7.1992-126-1.1992-6 1.1992-4.8008 30 1.1992 28.801 32.398-3.6016 63.602-4.8008 96-1.1992 26.398 2.3984 61.199 6 84 19.199-186 18-368.4 78-531.6 168-85.199 46.801-164.4 103.2-237.6 166.8-74.398 64.801-144 139.2-194.4 225.6-58.797 97.195-92.395 210-89.996 324 0 2.3984 1.1992 14.398 6 14.398s4.8008-10.801 4.8008-14.398c-3.6016-204 124.8-379.2 272.4-507.6 139.2-121.2 304.8-213.6 482.4-271.2 88.801-28.801 180-48 272.4-58.801l-18 18c-22.801 22.801-45.602 44.398-70.801 64.801-7.1992 6 0 36 3.6016 32.398 32.398-27.602 62.398-56.398 91.199-87.602 9.6016-9.6016 18-20.398 24-31.199h4.8008c8.3984-1.1992 8.3984-26.398 4.8008-39.602-1.2031-3.5977-1.2031-7.1953-2.4023-10.797z"/>
</svg>
