<?xml version="1.0" encoding="UTF-8"?>
<svg width="1200pt" height="1200pt" version="1.1" viewBox="0 0 1200 1200" xmlns="http://www.w3.org/2000/svg">
 <path d="m1131.6 100.8c-249.6 252-508.8 492-793.2 705.6-40.801 30-81.602 58.801-122.4 88.801-27.602 20.398-56.398 40.801-80.398 64.801 13.199-33.602 26.398-66 39.602-99.602 6-15.602 6-34.801 2.3984-51.602-1.1992-6-8.3984-27.602-15.602-13.199-34.801 75.602-64.801 153.6-96 230.4-4.8008 13.199-13.199 67.199 7.1992 72 22.801 4.8008 46.801-4.8008 68.398-12 25.199-7.1992 50.398-14.398 74.398-22.801 25.199-8.3984 49.199-18 74.398-26.398 25.199-9.6016 50.398-15.602 69.602-34.801 6-6 7.1992-37.199-2.3984-39.602-25.199-6-54 8.3984-79.199 14.398-22.801 6-46.801 12-69.602 18-8.3984 2.3984-18 4.8008-26.398 7.1992 10.801-9.6016 21.602-18 33.602-26.398 36-26.398 72-51.602 106.8-78 70.801-52.801 139.2-106.8 207.6-163.2 138-114 271.2-235.2 397.2-362.4 72-73.199 141.6-147.6 207.6-225.6 8.3945-10.797 2.3945-51.598-3.6055-45.598z"/>
</svg>
