<?xml version="1.0" encoding="UTF-8"?>
<svg width="1200pt" height="1200pt" version="1.1" viewBox="0 0 1200 1200" xmlns="http://www.w3.org/2000/svg">
 <g>
  <path d="m397.2 590.4c-6-10.801-10.801-21.602-15.602-32.398-8.3984-20.398-15.602 3.6016-16.801 14.398-4.8008 58.801 9.6016 117.6 30 172.8 20.398 52.801 44.398 109.2 79.199 154.8 27.602 36 73.199 80.398 116.4 43.199 50.398-43.199 93.602-100.8 134.4-153.6 12-15.602 12-38.398 9.6016-56.398 0-4.8008-8.3984-44.398-19.199-31.199-33.602 39.602-67.199 79.199-103.2 117.6-14.398 15.602-31.199 42-51.602 48-6 1.1992-12 1.1992-16.801 0 1.1992-8.3984 1.1992-16.801 1.1992-19.199-1.1992-254.4 13.199-507.6 38.398-760.8 1.1992-9.6016-8.3984-40.801-12-15.602-39.602 256.8-52.801 518.4-46.801 777.6v9.6016c-8.3984-6-16.801-13.199-24-19.199-31.199-30-50.398-72-69.602-110.4-15.602-31.199-28.801-62.398-37.199-96 7.2109 1.1953 7.2109-36.004 3.6094-43.207z"/>
  <path d="m207.6 1140c258-64.801 517.2-110.4 781.2-146.4 20.398-2.3984 16.801-86.398-2.3984-85.199-265.2 18-531.6 81.602-781.2 172.8-13.203 4.7969-8.4023 61.195 2.3984 58.797z"/>
 </g>
</svg>
