<?xml version="1.0" encoding="UTF-8"?>
<svg width="1200pt" height="1200pt" version="1.1" viewBox="0 0 1200 1200" xmlns="http://www.w3.org/2000/svg">
 <g>
  <path d="m181.2 500.4c-7.1992-20.398-15.602-31.199-38.398-26.398-27.602 6-55.199 20.398-79.199 36-4.8008 2.3984-2.3984 22.801 2.3984 20.398 24-12 55.199-27.602 82.801-26.398 26.398 0 20.398 30 37.199 44.398 33.602 30 78-8.3984 108-21.602 28.801-13.199 49.199-7.1992 69.602 14.398 15.602 16.801 32.398 27.602 56.398 26.398 50.398-4.8008 84-48 132-56.398 12 40.801 55.199 56.398 97.199 45.602 12-3.6016 24-8.3984 34.801-13.199 14.398-7.1992 32.398-19.199 49.199-18 15.602 0 20.398 14.398 28.801 25.199 7.1992 8.3984 15.602 14.398 25.199 18 55.199 19.199 103.2-36 158.4-30 54 4.8008 109.2 57.602 162 16.801 7.1992-6 2.3984-40.801-4.8008-36-45.602 31.199-99.602-8.3984-145.2-18-55.199-13.199-94.801 31.199-147.6 32.398-10.801 0-22.801-1.1992-32.398-7.1992-9.5977-10.797-14.398-21.598-21.598-29.996-15.602-18-34.801-12-52.801-2.3984-26.398 12-52.801 27.602-82.801 27.602-16.801 0-56.398-9.6016-57.602-32.398 0-3.6016-1.1992-20.398-7.1992-20.398-51.602 0-86.398 50.398-136.8 56.398-30 2.3984-42-14.398-61.199-32.398-18-16.801-38.398-18-60-9.6016-25.199 8.3945-98.398 65.996-116.4 16.793z"/>
  <path d="m1130.4 621.6c-42 4.8008-81.602 32.398-126 24-21.602-4.8008-26.398-18-40.801-32.398-15.602-15.602-36-6-54 1.1992-38.398 14.398-78 40.801-120 30-19.199-4.8008-31.199-25.199-50.398-27.602-19.199-2.3984-40.801 10.801-56.398 20.398-34.801 21.602-84 55.199-121.2 18-13.199-13.199-22.801-25.199-44.398-22.801-21.602 2.3984-39.602 16.801-55.199 30-14.398 10.801-30 21.602-48 22.801-26.398 1.1992-27.602-21.602-44.398-33.602-27.602-21.602-66 0-90 15.602-18 12-39.602 25.199-62.398 24-27.602-1.1992-30-26.398-49.199-39.602-42-26.398-82.801 18-105.6 48-3.6016 3.6016 0 24 3.6016 20.398 27.602-26.398 79.199-66 110.4-22.801 9.6016 13.199 15.602 25.199 32.398 30 16.801 4.8008 34.801-1.1992 50.398-7.1992 28.801-13.199 73.199-51.602 106.8-27.602 14.398 9.6016 15.602 28.801 33.602 36 15.602 6 31.199 1.1992 45.602-6 33.602-15.602 72-67.199 109.2-28.801 28.801 30 64.801 27.602 99.602 9.6016 18-9.6016 34.801-22.801 54-32.398 9.6016-4.8008 22.801-10.801 33.602-8.3984 13.199 2.3984 21.602 14.398 32.398 20.398 34.801 19.199 75.602 4.8008 109.2-9.6016 18-7.1992 55.199-31.199 74.398-20.398 7.1992 3.6016 10.801 13.199 16.801 19.199 7.1992 7.1992 14.398 13.199 24 16.801 45.602 16.801 91.199-14.398 135.6-20.398 10.793 0 7.1914-48-3.6094-46.797z"/>
 </g>
</svg>
