<?xml version="1.0" encoding="UTF-8"?>
<svg width="1200pt" height="1200pt" version="1.1" viewBox="0 0 1200 1200" xmlns="http://www.w3.org/2000/svg">
 <g>
  <path d="m1156.3 772.83c2.25 43.312-48.562 29.812-66.562 91.125-22.781 77.719 9.9375 166.41-96.094 160.97-42.281-1.6875-108.47-15.094-140.44 9.2812-29.719 22.5-52.5 76.969-64.594 114.28-1.1914 3.793-3.5586 7.1094-6.7617 9.4688s-7.0703 3.6406-11.051 3.6562h-3.6562c0.40234-5.1797-0.13672-10.387-1.5938-15.375-15.758-51.512-26.371-104.46-31.688-158.06-1.7812-29.062 7.125-73.312 25.406-96.938 96.188-124.78 129.56-228.75 111.56-347.62-21.938-144.94-102.38-247.69-227.25-295.97 21.531-3.9297 43.297-6.4336 65.156-7.5 207.38-10.781 384.94 122.44 379.22 306.19-0.75 24.188-4.9688 59.906-4.875 83.25 0.1875 82.922 71.898 116.91 73.219 143.25z"/>
  <path d="m724.19 1177.7c6.1562 0.019531 11.961-2.8633 15.668-7.7812 3.7031-4.9141 4.8789-11.289 3.1641-17.203-10.594-36.449-28.895-106.06-32.512-163.12-2.25-35.512 8.4922-84.555 30.227-112.74 86.672-112.44 125.09-209.86 106.95-329.77-29.398-194.32-166.63-297.25-356.39-307-207.37-10.723-384.96 122.48-379.24 306.18 0.75 24.254 4.9961 60 4.8945 83.277-0.19531 82.867-71.898 116.91-73.273 143.29-2.2695 43.305 48.609 29.773 66.562 91.039 22.781 77.812-9.8711 166.47 96.121 161 42.289-1.707 111.03-18.121 140.48 9.2734 18.75 17.465 33.91 93.676 39.805 127.41 0.79688 4.5312 3.1719 8.6367 6.7031 11.594 3.5273 2.9531 7.9883 4.5703 12.59 4.5586z"/>
  <path d="m358.55 27.488-19.969 36.562c-0.64844 1.1875-1.625 2.1602-2.8125 2.8125l-36.523 19.941c-2.2734 1.2422-3.6914 3.625-3.6914 6.2188s1.418 4.9766 3.6914 6.2188l36.516 19.969c1.1836 0.65625 2.1602 1.6289 2.8125 2.8125l19.969 36.516c1.2422 2.2773 3.6289 3.6914 6.2188 3.6914 2.5938 0 4.9805-1.4141 6.2227-3.6914l19.949-36.504c0.64844-1.1875 1.625-2.1641 2.8125-2.8125l36.562-19.969c2.2695-1.2461 3.6797-3.6328 3.6797-6.2227s-1.4102-4.9727-3.6797-6.2188l-36.562-19.988c-1.1914-0.64453-2.168-1.6211-2.8125-2.8125l-19.977-36.562c-1.2617-2.2461-3.6367-3.6328-6.2148-3.625-2.5742 0.007812-4.9453 1.4102-6.1914 3.6641z"/>
  <path d="m183.49 159.27-13.332 24.375c-0.42969 0.78906-1.082 1.4414-1.875 1.875l-24.375 13.332v-0.003907c-1.5195 0.83203-2.4609 2.4258-2.4609 4.1562 0 1.7305 0.94141 3.3203 2.4609 4.1523l24.375 13.332c0.79297 0.42969 1.4453 1.082 1.875 1.875l13.332 24.375c0.82812 1.5156 2.4219 2.4609 4.1523 2.4609s3.3242-0.94531 4.1523-2.4609l13.332-24.375c0.42969-0.79297 1.082-1.4453 1.875-1.875l24.375-13.332c1.5195-0.83203 2.4609-2.4219 2.4609-4.1523 0-1.7305-0.94141-3.3242-2.4609-4.1562l-24.375-13.332v0.003907c-0.79297-0.43359-1.4453-1.0859-1.875-1.875l-13.332-24.375c-0.82812-1.5195-2.4219-2.4648-4.1523-2.4648s-3.3242 0.94531-4.1523 2.4648z"/>
  <path d="m701.69 195.19c-4.7734-0.003906-9.0703-2.8984-10.859-7.3242-1.7891-4.4258-0.71875-9.4922 2.7109-12.812 19.883-19.258 15.488-24.141 3.75-37.219-11.25-12.516-28.258-31.426-8.4375-63.02 3.4453-5.4922 10.688-7.1562 16.184-3.7109 5.4922 3.4414 7.1523 10.688 3.7109 16.18-10.434 16.613-4.6016 23.109 5.9922 34.883 12.441 13.848 31.246 34.754-4.8672 69.723-2.1914 2.1289-5.1289 3.3125-8.1836 3.3008z"/>
  <path d="m934.85 195.19c-4.7773 0-9.0742-2.8945-10.867-7.3203-1.793-4.4258-0.71875-9.4961 2.7109-12.816 19.883-19.258 15.488-24.141 3.75-37.211-11.25-12.523-28.258-31.434-8.4375-63.027 3.4414-5.4805 10.676-7.1328 16.156-3.6875 5.4805 3.4414 7.1328 10.676 3.6914 16.156-10.434 16.613-4.6016 23.109 5.9922 34.883 12.441 13.848 31.246 34.754-4.8672 69.723-2.1797 2.1172-5.0938 3.3008-8.1289 3.3008z"/>
  <path d="m818.89 207.37c-4.7734-0.003907-9.0664-2.9023-10.859-7.3242-1.7891-4.4258-0.71484-9.4961 2.7148-12.816 36.074-34.93 25.473-46.727 6.2266-68.137-17.375-19.332-41.18-45.805-12.594-91.34 3.4414-5.4805 10.676-7.1328 16.156-3.6875 5.4805 3.4414 7.1328 10.676 3.6914 16.156-19.172 30.555-6.8633 44.25 10.152 63.195 18.977 21.102 45 50.008-7.3516 100.65v0.003906c-2.1797 2.1172-5.0977 3.3008-8.1367 3.3008z"/>
 </g>
</svg>
