<?xml version="1.0" encoding="UTF-8"?>
<svg width="1200pt" height="1200pt" version="1.1" viewBox="0 0 1200 1200" xmlns="http://www.w3.org/2000/svg">
 <path d="m1080 910.8c51.602 0 92.398-42 92.398-92.398v-649.2c0-51.602-42-92.398-92.398-92.398h-487.2c-14.398 0-25.199 12-25.199 25.199v542.4c0 16.801 19.199 26.398 32.398 16.801l142.8-97.199 142.8 97.199c13.199 9.6016 32.398 0 32.398-16.801v-441.6h129.6v580.8h-894v-580.8h249.6c14.398 0 27.602-12 27.602-27.602v-72c0-14.398-12-27.602-27.602-27.602l-283.2 0.003906c-51.602 0-92.398 42-92.398 92.398v649.2c0 51.602 42 92.398 92.398 92.398h376.8v103.2h-73.199c-12 0-22.801 9.6016-22.801 22.801v64.801c0 12 9.6016 22.801 22.801 22.801h354c12 0 22.801-9.6016 22.801-22.801v-64.801c0-12-9.6016-22.801-22.801-22.801h-73.199v-103.2l375.6 0.003906zm-230.4-590.4-48 40.801 15.602 62.398c2.3984 12-9.6016 20.398-20.398 14.398l-54-33.602-54 33.602c-9.6016 6-22.801-2.3984-20.398-14.398l15.602-62.398-48-40.801c-9.6016-7.1992-4.8008-22.801 7.1992-24l63.602-4.8008 24-58.801c4.8008-10.801 20.398-10.801 25.199 0l24 58.801 63.602 4.8008c10.789 1.2031 15.59 15.602 5.9922 24z"/>
</svg>
