<?xml version="1.0" encoding="UTF-8"?>
<svg width="1200pt" height="1200pt" version="1.1" viewBox="0 0 1200 1200" xmlns="http://www.w3.org/2000/svg">
 <g>
  <path d="m525 414.07v103.43c0.003906 11.859-4.707 23.238-13.094 31.625s-19.766 13.098-31.625 13.094h-30.844c-11.867 0.015625-23.25-4.6875-31.641-13.078s-13.094-19.773-13.078-31.641v-103.43c-0.015625-11.867 4.6875-23.25 13.078-31.641s19.773-13.098 31.641-13.078h30.844c11.859-0.003906 23.238 4.707 31.625 13.094 8.3867 8.3867 13.098 19.762 13.094 31.625z"/>
  <path d="m898.43 919.19c-2.5312-40.312 9.6562-96 34.312-128.06 98.531-127.78 142.12-238.41 121.5-374.62-33.375-220.78-189.28-337.69-404.81-348.75-235.59-12.188-437.34 139.12-430.88 347.81 0.84375 27.562 5.625 68.062 5.5312 94.594-0.1875 94.125-81.656 132.84-83.25 162.75-2.5312 49.219 55.219 33.844 75.656 103.5 25.875 88.312-11.25 189.09 109.22 182.91 48-1.9688 126.09-20.625 159.56 10.5 21.281 19.875 38.531 106.41 45.188 144.75 0.92578 5.1484 3.625 9.8047 7.6367 13.164 4.0078 3.3594 9.0703 5.2031 14.301 5.2109h361.59c6.9922 0.011719 13.582-3.2734 17.789-8.8594 4.2031-5.5898 5.5312-12.832 3.5859-19.547-12-41.41-32.812-120.47-36.938-185.34zm-25.219-393.84v11.156c0.027344 3.2734-0.28906 6.5391-0.9375 9.75-0.19141 1.2383-0.47656 2.457-0.84375 3.6562v0.09375c-0.25781 1.1797-0.60156 2.3398-1.0312 3.4688-0.09375 0.09375 0 0.09375 0 0.09375-2.4766 6.9492-6.3359 13.328-11.344 18.75-10.129 11.289-24.582 17.734-39.75 17.719h-391.8c-11.605-0.019531-22.898-3.7656-32.215-10.684-9.3164-6.9219-16.164-16.648-19.535-27.754-0.86719-3.2617-1.4961-6.5859-1.875-9.9375-0.19141-1.7148-0.28516-3.4336-0.28125-5.1562v-140.62c-0.003906-1.8477 0.089844-3.6953 0.28125-5.5312 1.2617-13.344 7.457-25.738 17.375-34.758 9.918-9.0156 22.844-14.004 36.25-13.992h391.78c13.406-0.011718 26.332 4.9766 36.25 13.992 9.918 9.0195 16.113 21.414 17.375 34.758 0.19141 1.8359 0.28516 3.6836 0.28125 5.5312v11.156h13.031c7.4609 0 14.613 2.9609 19.887 8.2383 5.2734 5.2734 8.2383 12.426 8.2383 19.887v62.062c0 7.457-2.9648 14.613-8.2383 19.887-5.2734 5.2734-12.426 8.2383-19.887 8.2383z"/>
  <path d="m859.05 572.32c6.7695-7.2734 11.348-16.305 13.219-26.062-1.7656 9.9023-6.3555 19.082-13.219 26.438-10.129 11.289-24.582 17.734-39.75 17.719h-391.8c-13.398-0.003906-26.316-5-36.23-14.016-9.9141-9.0117-16.117-21.398-17.395-34.734 1.3867 13.262 7.6289 25.543 17.531 34.477 9.9023 8.9297 22.758 13.883 36.094 13.898h391.78c15.172 0.019532 29.637-6.4219 39.77-17.719z"/>
 </g>
</svg>
