<?xml version="1.0" encoding="UTF-8"?>
<svg width="1200pt" height="1200pt" version="1.1" viewBox="0 0 1200 1200" xmlns="http://www.w3.org/2000/svg">
 <path d="m120 910.8h376.8v103.2h-73.199c-12 0-22.801 9.6016-22.801 22.801v64.801c0 12 9.6016 22.801 22.801 22.801h354c12 0 22.801-9.6016 22.801-22.801v-64.801c0-12-9.6016-22.801-22.801-22.801h-73.199v-103.2h375.6c51.602 0 92.398-42 92.398-92.398v-649.2c0-51.602-42-92.398-92.398-92.398h-960c-51.602 0-92.398 42-92.398 92.398v649.2c0 51.602 40.797 92.402 92.398 92.402zm33.602-708h894v580.8h-894zm439.2 270h-159.6v-158.4c87.602 0 159.6 70.801 159.6 158.4zm-205.2 45.598h159.6c0 87.602-70.801 159.6-159.6 159.6-88.801 0-159.6-70.801-159.6-159.6 0-88.797 72-159.6 159.6-159.6zm274.8-43.199h308.4v57.602h-308.4zm0-100.8h308.4l0.003906 57.602h-308.4zm0 201.6h308.4v57.602h-308.4z"/>
</svg>
