<?xml version="1.0" encoding="UTF-8"?>
<svg width="1200pt" height="1200pt" version="1.1" viewBox="0 0 1200 1200" xmlns="http://www.w3.org/2000/svg">
 <g>
  <path d="m1053.6 122.4c-146.4 153.6-285.6 313.2-435.6 463.2-34.801 34.801-70.801 78-111.6 105.6-58.801 42-85.199-16.801-106.8-63.602-46.801-100.8-90-202.8-129.6-306-12-30-18 36-13.199 48 39.602 109.2 81.602 216 128.4 322.8 14.398 33.602 30 90 70.801 102 48 15.602 92.398-37.199 123.6-66 172.8-163.2 332.4-339.6 483.6-523.2 10.801-13.199 9.6016-38.398 8.3984-55.199-1.1992-2.4023-8.3984-38.402-17.996-27.605z"/>
  <path d="m902.4 993.6c20.398-2.3984 14.398-87.602-2.3984-85.199-129.6 18-258 36-386.4 55.199-124.8 19.199-249.6 42-375.6 54-13.199 1.1992-10.801 62.398 1.1992 62.398 126-6 250.8-25.199 376.8-39.602 128.4-14.398 256.8-30 386.4-46.797z"/>
 </g>
</svg>
