<?xml version="1.0" encoding="UTF-8"?>
<svg width="1200pt" height="1200pt" version="1.1" viewBox="0 0 1200 1200" xmlns="http://www.w3.org/2000/svg">
 <path d="m436.8 968.4v-92.398h-334.8c-45.602 0-81.602-37.199-81.602-81.602v-576c0-45.602 37.199-81.602 81.602-81.602h853.2c45.602 0 81.602 37.199 81.602 81.602v327.6c-27.602-4.8008-55.199-7.1992-84-7.1992-9.6016 0-19.199 0-27.602 1.1992v-292.8h-793.2v516h420c-8.3984 25.199-4.8008 46.801 0 61.199 6 16.801 20.398 40.801 54 55.199 4.8008 2.3984 9.6016 4.8008 14.398 7.1992v81.602h64.801c10.801 0 19.199 8.3984 19.199 19.199v57.602c0 10.801-8.3984 19.199-19.199 19.199h-313.2c-10.801 0-19.199-8.3984-19.199-19.199v-57.602c0-10.801 8.3984-19.199 19.199-19.199zm337.2-63.598c16.801 15.602 33.602 22.801 54 28.801 0 0 78 24 136.8 80.398 19.199 18 49.199 20.398 70.801 6l132-86.398c10.801-8.3984 15.602-22.801 9.6016-36l-12-26.398c-2.3984-10.801-8.3984-26.398-12-44.398-2.3984-72-32.398-147.6-43.199-175.2-2.3984-7.1992-8.3984-12-14.398-14.398-124.8-44.398-242.4-12-242.4-12l-16.801-26.398c-13.199-21.602-27.602-42-39.602-64.801-14.398-24-28.801-46.801-43.199-69.602-10.801-16.801-30-21.602-46.801-13.199-16.801 9.6016-22.801 27.602-14.398 45.602 36 82.801 72 165.6 105.6 248.4 3.6016 9.6016 6 19.199 6 28.801 0 20.398-4.8008 37.199-22.801 27.602-21.602-10.801-67.199-39.602-78-42-18-4.8008-37.199-8.3984-56.398-1.1992-8.3984 3.6016-19.199 12-22.801 20.398-7.1992 15.602-4.8008 26.398 10.801 32.398 34.801 15.602 67.199 37.199 97.199 62.398 13.191 9.5938 29.992 20.395 41.992 31.195z"/>
</svg>
