<?xml version="1.0" encoding="UTF-8"?>
<svg width="1200pt" height="1200pt" version="1.1" viewBox="0 0 1200 1200" xmlns="http://www.w3.org/2000/svg">
 <path d="m120 910.8h376.8v103.2h-73.199c-12 0-22.801 9.6016-22.801 22.801v64.801c0 12 9.6016 22.801 22.801 22.801h354c12 0 22.801-9.6016 22.801-22.801v-64.801c0-12-9.6016-22.801-22.801-22.801h-73.199v-103.2h375.6c51.602 0 92.398-42 92.398-92.398v-649.2c0-51.602-42-92.398-92.398-92.398h-960c-51.602 0-92.398 42-92.398 92.398v649.2c0 51.602 40.797 92.402 92.398 92.402zm33.602-708h894v580.8h-894zm309.6 186-111.6 111.6 111.6 111.6-60 59.996-170.4-171.6 171.6-171.6zm333.6-60 171.6 171.6-171.6 171.6-60-60 111.6-111.6-111.6-111.6zm-153.6-57.602 78 31.199-164.4 415.2-78-31.199z"/>
</svg>
