<?xml version="1.0" encoding="UTF-8"?>
<svg width="1200pt" height="1200pt" version="1.1" viewBox="0 0 1200 1200" xmlns="http://www.w3.org/2000/svg">
 <path d="m1074 982.8h-372v102h72c12 0 21.602 9.6016 21.602 21.602v63.602c0 12-9.6016 21.602-21.602 21.602l-349.2-0.003907c-12 0-21.602-9.6016-21.602-21.602v-63.602c0-12 9.6016-21.602 21.602-21.602h72v-102h-372c-50.398 0-91.199-40.801-91.199-91.199v-589.2c0-50.398 40.801-91.199 91.199-91.199h277.2v118.8 6h-242.4v522h882v-522h-244.8v-124.8h277.2c50.398 0 91.199 40.801 91.199 91.199v589.2c0 50.402-40.801 91.203-91.199 91.203zm-361.2-919.2v498c0 7.1992-2.3984 13.199-6 19.199-31.199 48-62.398 96-93.602 142.8-3.6016 6-8.3984 8.3984-14.398 8.3984-4.8008 0-10.801-2.3984-14.398-8.3984-31.199-48-62.398-96-93.602-144-3.6016-4.8008-4.8008-10.801-4.8008-16.801v-158.4-339.6c0-9.6016 2.3984-16.801 9.6016-22.801 8.3984-6 16.801-13.199 26.398-16.801 25.199-10.801 51.602-15.602 76.801-15.602s50.398 4.8008 74.398 14.398c10.801 4.8008 20.398 12 30 18 7.1992 4.8047 9.6016 12.004 9.6016 21.605zm-43.199 504c-7.1992-3.6016-14.398-9.6016-22.801-12-15.602-4.8008-31.199-7.1992-45.602-7.1992-16.801 0-32.398 2.3984-49.199 8.3984-8.3984 3.6016-16.801 7.1992-24 15.602 13.199 20.398 26.398 39.602 38.398 60 10.801-7.1992 22.801-10.801 34.801-10.801s22.801 3.6016 33.602 9.6016c12-18 24-37.199 36-55.199 2.3984-3.6055 2.3984-6.0039-1.1992-8.4023z"/>
</svg>
