<?xml version="1.0" encoding="UTF-8"?>
<svg width="1200pt" height="1200pt" version="1.1" viewBox="0 0 1200 1200" xmlns="http://www.w3.org/2000/svg">
 <g>
  <path d="m872.32 983.21c-2.3438-36.844 8.8125-87.656 31.312-116.91 89.812-116.53 129.66-217.59 110.91-341.91-14.25-93.844-52.781-167.25-109.78-219.66-6.3477 8.2812-14.324 15.172-23.438 20.25-35.812 20.531-92.062 21.094-132.75 2.4375-13.973 17.902-31.957 32.273-52.5 41.953 2.1758 2.832 3.4453 6.2578 3.6367 9.8281 0.26953 4.793-1.4609 9.4844-4.7812 12.953-22.82 24.375-92.258 106.29-92.961 107.11-0.17578 0.21484-0.36328 0.41406-0.5625 0.60156-3.3359 3.0898-8.3945 3.375-12.055 0.68359-3.6641-2.6914-4.8984-7.6055-2.9453-11.707 2.1016-4.9688 30.617-72.449 41.793-93.844 0.65234-1.3086 0.33594-2.8906-0.76953-3.8438l-11.598-10.367v-0.003906c-38.844-4.8672-74.523-23.902-100.2-53.457-40.688 18.75-96.938 18.188-132.84-2.3438-11.504-6.3359-21.113-15.625-27.844-26.906-65.812 56.438-105.84 135.09-103.03 225.47 0.75 25.219 5.1562 62.156 5.0625 86.344-0.1875 85.969-74.531 121.22-75.938 148.59-2.3438 44.906 50.344 30.844 69 94.406 23.531 80.625-10.312 172.59 99.562 166.88 43.875-1.7812 115.12-18.75 145.69 9.5625 19.5 18.188 35.156 97.125 41.25 132.09 0.8125 4.707 3.2617 8.9727 6.918 12.043 3.6523 3.0703 8.2773 4.75 13.051 4.7383h330c6.3711 0.007812 12.375-2.9805 16.207-8.0703 3.8359-5.0859 5.0547-11.68 3.293-17.805-10.996-37.781-29.934-109.97-33.684-169.12zm-425.46-550.62c-4.1953-0.007813-8.0664-2.2578-10.152-5.8945-2.0859-3.6406-2.0664-8.1172 0.042969-11.738l15.301-26.25c3.2695-5.5898 10.449-7.4727 16.035-4.207 5.5898 3.2695 7.4727 10.449 4.207 16.039l-15.301 26.25c-2.1094 3.5938-5.9648 5.8047-10.133 5.8008zm58.527 44.352-15.309 26.195c-3.2656 5.5898-10.445 7.4766-16.031 4.2109-5.5898-3.2656-7.4766-10.441-4.2109-16.031l15.309-26.203c3.2695-5.5898 10.449-7.4727 16.035-4.207 5.5898 3.2695 7.4727 10.449 4.207 16.039zm61.93-77.566-15.309 26.25c-3.293 5.5312-10.43 7.3672-15.984 4.1211-5.5547-3.25-7.4531-10.371-4.2461-15.953l15.309-26.203c1.4844-2.8359 4.0625-4.9414 7.1367-5.8281 3.0742-0.88672 6.3789-0.47656 9.1445 1.1328 2.7656 1.6133 4.7539 4.2852 5.5 7.3945 0.74609 3.1133 0.18359 6.3984-1.5508 9.0859zm182.34 81.824-15.301 26.25c-3.2656 5.5898-10.445 7.4727-16.035 4.207-5.5898-3.2695-7.4727-10.449-4.2031-16.039l15.309-26.25c3.293-5.5273 10.43-7.3672 15.984-4.1172 5.5547 3.2461 7.4531 10.367 4.2461 15.949zm9.1016-81.824-15.309 26.25c-3.2656 5.5898-10.445 7.4727-16.035 4.2031-5.5898-3.2656-7.4727-10.445-4.2031-16.035l15.301-26.203c3.3203-5.4727 10.414-7.2695 15.941-4.0391 5.5273 3.2266 7.4414 10.293 4.3086 15.871zm98.035 0-15.309 26.25c-3.2812 5.5859-10.473 7.4531-16.059 4.1719s-7.4531-10.473-4.1719-16.059l15.309-26.203c3.2695-5.5859 10.449-7.4648 16.035-4.1953 5.5898 3.2695 7.4648 10.449 4.1953 16.035z"/>
  <path d="m518.95 300.74c16.988 23.246 40.824 40.594 68.164 49.609-0.76563-3.9102-0.19531-7.9648 1.625-11.512l37.949-73.453c2.2148-4.3203 6.6641-7.0352 11.52-7.0195h52.566c4.7578 0 9.1328 2.6055 11.398 6.7852 2.2695 4.1797 2.0703 9.2695-0.52344 13.258l-38.082 58.539v-0.003907c-0.875 1.3906-0.60547 3.207 0.62891 4.2852l12.891 11.25c27.762-9.2578 51.68-27.441 68.027-51.711 54.957 31.492 160.45 19.762 161.1-47.043 0.60156-60.938-65.859-67.5-65.859-67.5-7.1172-92.023-97.5-87.055-97.5-87.055s-6.4414-77.363-110.79-77.363c-104.35-0.003906-110.82 77.34-110.82 77.34s-90.422-4.9688-97.5 87.055c0 0-66.469 6.5625-65.867 67.5 0.625 66.801 106.11 78.527 161.07 47.039z"/>
 </g>
</svg>
