<?xml version="1.0" encoding="UTF-8"?>
<svg width="1200pt" height="1200pt" version="1.1" viewBox="0 0 1200 1200" xmlns="http://www.w3.org/2000/svg">
 <path d="m120 910.8h376.8v103.2h-73.199c-12 0-22.801 9.6016-22.801 22.801v64.801c0 12 9.6016 22.801 22.801 22.801h354c12 0 22.801-9.6016 22.801-22.801v-64.801c0-12-9.6016-22.801-22.801-22.801h-73.199v-103.2h375.6c51.602 0 92.398-42 92.398-92.398v-649.2c0-51.602-42-92.398-92.398-92.398h-960c-51.602 0-92.398 42-92.398 92.398v649.2c0 51.602 40.797 92.402 92.398 92.402zm33.602-708h894v580.8h-894zm607.2 430.8v52.801c0 7.1992-6 13.199-13.199 13.199h-295.2c-7.1992 0-13.199-6-13.199-13.199v-52.801c0-7.1992 6-13.199 13.199-13.199h295.2c7.2031-0.003906 13.203 5.9961 13.203 13.199zm-252-165.6c-6-8.3984-1.1992-20.398 9.6016-20.398h32.398v-148.8c0-4.8008 3.6016-8.3984 8.3984-8.3984h82.801c4.8008 0 8.3984 3.6016 8.3984 8.3984v148.8h32.398c10.801 0 16.801 12 9.6016 20.398l-81.602 103.2c-4.8008 6-14.398 6-20.398 0z"/>
</svg>
