<?xml version="1.0" encoding="UTF-8"?>
<svg width="1200pt" height="1200pt" version="1.1" viewBox="0 0 1200 1200" xmlns="http://www.w3.org/2000/svg">
 <path d="m872.34 976.88c-2.3438-36.844 8.8125-87.656 31.312-116.91 89.812-116.53 129.66-217.59 110.91-341.91-16.594-109.12-65.906-190.5-139.03-243.66-22.406-40.969-35.062-75.844-35.062-118.69v-108.84c-0.015625-8.0781-3.2305-15.816-8.9414-21.527-5.7109-5.7109-13.449-8.9258-21.527-8.9414h-48.094c-8.082 0-15.832 3.2109-21.543 8.9258-5.7148 5.7109-8.9258 13.461-8.9258 21.543v108.84c0.070312 18.289-2.4258 36.496-7.4062 54.094-26.016-5.3438-52.406-8.668-78.938-9.9375-215.06-11.156-399.09 126.94-393.19 317.34 0.75 25.219 5.1562 62.156 5.0625 86.344-0.1875 85.969-74.531 121.22-75.938 148.59-2.3438 44.906 50.344 30.844 69 94.406 23.531 80.625-10.312 172.59 99.562 166.88 43.875-1.7812 115.12-18.75 145.69 9.5625 19.5 18.188 35.156 97.125 41.25 132.09 0.8125 4.7031 3.2617 8.9688 6.918 12.039 3.6523 3.0742 8.2773 4.7539 13.051 4.7422h330c6.3711 0.007812 12.375-2.9805 16.207-8.0703 3.8359-5.0859 5.0547-11.684 3.293-17.805-10.969-37.781-29.906-109.97-33.656-169.12zm-433.46-356.83c19.895-19.258 15.488-24.148 3.75-37.219-11.25-12.516-28.266-31.434-8.4375-63.027 3.4414-5.4844 10.68-7.1367 16.16-3.6953 5.4844 3.4453 7.1367 10.68 3.6953 16.164-10.445 16.613-4.6133 23.109 5.9805 34.895 12.449 13.836 31.258 34.754-4.8555 69.723-4.6602 4.5-12.086 4.3711-16.59-0.28906-4.5039-4.6602-4.375-12.086 0.28516-16.586zm38.68 46.332v49.406h-28.688c-5.1758 0-9.375-4.1992-9.375-9.375v-30.656c0-5.1758 4.1992-9.375 9.375-9.375zm14.625-36.375c-4.4961-4.6484-4.375-12.066 0.27344-16.566 36.086-34.941 25.473-46.734 6.2266-68.148-17.371-19.332-41.176-45.805-12.562-91.34h-0.003906c3.4453-5.4805 10.68-7.1289 16.16-3.6875 5.4805 3.4414 7.1289 10.676 3.6875 16.156-19.199 30.562-6.8906 44.25 10.152 63.207 18.965 21.102 45 50.008-7.3594 100.64-4.6484 4.5-12.066 4.3828-16.574-0.26172zm8.8125 85.742v-49.367h160.78v47.25c0 0.73047 0.085938 1.4336 0.11328 2.1562zm218.44 32.062c-2.2695 0-4.5352-0.23047-6.7578-0.68359-0.9375-0.1875-1.7734-0.53516-2.6719-0.79688-2.3789-0.50781-4.6484-1.4375-6.7031-2.7383-0.86328-0.46875-1.7617-0.87109-2.5781-1.4062-1.0469-0.73047-2.0508-1.5195-3.0117-2.3594-0.65625-0.54297-1.3594-1.0312-1.9688-1.6211v-0.003907c-0.92188-0.9375-1.793-1.9258-2.6055-2.9609-0.51562-0.62891-1.0781-1.2266-1.5547-1.875-0.73828-1.0859-1.4102-2.2148-2.0156-3.375-0.40234-0.74219-0.84375-1.4453-1.1992-2.2227h-0.003906c-0.50391-1.1758-0.94531-2.3828-1.3203-3.6094-0.28125-0.86328-0.58984-1.7148-0.80469-2.6055-0.26953-1.2383-0.47266-2.4883-0.60156-3.75-0.22656-1.3984-0.36719-2.8125-0.42188-4.2266v-336.6c1.6328-24.078 8.1055-47.578 19.031-69.094 18.43-28.824 32.781-60.059 42.656-92.812 3.6484-13.277 6.0312-26.867 7.125-40.594h63.844c2.2578 26.188 8.8477 51.816 19.5 75.844 8.7891 19.828 18.875 39.059 30.188 57.562 10.957 21.512 17.465 45.012 19.125 69.094v27.629c-2.2305-0.91797-4.6211-1.3906-7.0312-1.3984h-105.86c-4.9727 0-9.7422 1.9766-13.258 5.4922s-5.4922 8.2852-5.4922 13.258v219.46c0 4.9727 1.9766 9.7422 5.4922 13.258s8.2852 5.4922 13.258 5.4922h105.86c2.4102-0.007812 4.8008-0.48047 7.0312-1.3984v54.863c-0.019531 9.0703-3.6328 17.762-10.043 24.176-6.4141 6.4102-15.105 10.023-24.176 10.043z"/>
</svg>
