<?xml version="1.0" encoding="UTF-8"?>
<svg width="1200pt" height="1200pt" version="1.1" viewBox="0 0 1200 1200" xmlns="http://www.w3.org/2000/svg">
 <g>
  <path d="m699.52 432.26h-63.41c-4.1641 0-8.1719-1.6016-11.188-4.4688-3.0195-2.8711-4.8164-6.793-5.0234-10.953l-6.8633-139.01c-0.125-2.5664 0.80859-5.0703 2.5781-6.9297 1.7734-1.8555 4.2305-2.9062 6.7969-2.9062h90.828c2.5664 0 5.0234 1.0508 6.7969 2.9062 1.7695 1.8594 2.7031 4.3633 2.5781 6.9297l-6.8711 139.01h-0.003906c-0.20313 4.1641-2 8.0859-5.0234 10.957-3.0195 2.8711-7.0273 4.4688-11.195 4.4648z"/>
  <path d="m960.27 323.66c4.0156 0.027344 7.918-1.3594 11.016-3.9219 3.0938-2.5625 5.1875-6.1367 5.9062-10.09 0.71875-3.957 0.023438-8.0391-1.9688-11.527-15.461-25.641-52.164-47.812-94.977-47.812-42.816 0-79.52 22.164-94.977 47.812h-0.003907c-1.9922 3.4883-2.6914 7.5703-1.9727 11.527 0.72266 3.9531 2.8125 7.5273 5.9102 10.09 3.0938 2.5625 6.9961 3.9492 11.016 3.9219z"/>
  <path d="m801.21 387.65h158.07c4.8555 0 9.5078 1.9258 12.941 5.3594 3.4297 3.4297 5.3594 8.0859 5.3594 12.938 0 6.9805-2.7734 13.676-7.707 18.609-4.9375 4.9336-11.629 7.707-18.609 7.707h-142.05c-6.9766 0-13.672-2.7773-18.605-7.7148-4.9297-4.9375-7.7031-11.629-7.6992-18.609 0-4.8516 1.9297-9.5078 5.3594-12.941 3.4336-3.4297 8.0859-5.3594 12.941-5.3594z"/>
  <path d="m799.3 337.83h161.89c9.0547 0 16.398 9.0547 16.398 16.391 0 9.0547-7.3398 16.391-16.398 16.391h-161.89c-9.0547 0-16.398-9.0547-16.398-16.391 0-9.0547 7.3398-16.391 16.398-16.391z"/>
  <path d="m682.64 180.84 18.355-69.777v-0.003906c1.6484-6.2578-2.0859-12.668-8.3477-14.32-6.2617-1.6484-12.672 2.0898-14.32 8.3516l-19.688 74.898v-0.003906c-18.805 2.2617-36.133 11.328-48.711 25.492-12.578 14.164-19.535 32.441-19.559 51.383 0 6.4727 5.2461 11.719 11.719 11.719s11.719-5.2461 11.719-11.719c0.003906-14.328 5.6992-28.07 15.832-38.203 10.137-10.133 23.879-15.82 38.211-15.82 14.332 0.003907 28.074 5.6992 38.203 15.832 10.133 10.137 15.824 23.879 15.82 38.211 0 6.4727 5.2461 11.719 11.719 11.719s11.719-5.2461 11.719-11.719c-0.019531-17.973-6.2773-35.383-17.707-49.254-11.434-13.867-27.324-23.336-44.965-26.785z"/>
  <path d="m1014.6 517.69c-1.2188-8.1562-2.625-16.219-4.4062-24.094 36.102-44.297 58.434-98.199 64.238-155.05 5.8047-56.852-5.1758-114.16-31.578-164.83-26.406-50.68-67.082-92.512-117-120.32-49.918-27.816-106.89-40.398-163.88-36.188-56.988 4.2109-111.5 25.023-156.79 59.871-45.289 34.848-79.379 82.199-98.051 136.21-150 39.469-259.78 155.72-255.19 303.47 0.75 25.219 5.1562 62.156 5.0625 86.344-0.1875 85.969-74.531 121.22-75.938 148.59-2.3438 44.906 50.344 30.844 69 94.406 23.531 80.625-10.312 172.59 99.562 166.88 43.875-1.7812 115.12-18.75 145.69 9.6562 19.5 18.094 35.156 97.031 41.25 132 0.8125 4.7031 3.2617 8.9688 6.918 12.039 3.6523 3.0742 8.2773 4.7539 13.051 4.7422h330c6.3711 0.007812 12.375-2.9805 16.207-8.0703 3.8359-5.0859 5.0547-11.684 3.293-17.805-10.969-37.781-29.906-109.97-33.656-169.12-2.3438-36.844 8.8125-87.656 31.312-116.91 89.812-116.53 129.66-217.59 110.91-341.81zm-231.09-477.84c70.477 1.3164 137.62 30.238 187 80.543 49.379 50.309 77.039 117.98 77.039 188.47s-27.66 138.16-77.039 188.47c-49.375 50.305-116.52 79.227-187 80.543-2.5078 0-4.9414 0.82422-6.9375 2.3438-38.531 28.5-82.031 58.688-103.5 71.156 2.3438-20.438 9.0938-55.594 14.625-80.438 1.207-5.5547-1.7031-11.184-6.9375-13.406-57.52-23.797-105.01-66.805-134.38-121.69-29.367-54.887-38.793-118.26-26.676-179.32 12.121-61.059 45.035-116.02 93.137-155.54 48.105-39.512 108.42-61.117 170.67-61.145z"/>
 </g>
</svg>
