<?xml version="1.0" encoding="UTF-8"?>
<svg width="1200pt" height="1200pt" version="1.1" viewBox="0 0 1200 1200" xmlns="http://www.w3.org/2000/svg">
 <g>
  <path d="m609.6 204h-241.2c-9.6016 0-19.199 8.3984-19.199 19.199 0 9.6016 8.3984 19.199 19.199 19.199h241.2c9.6016 0 19.199-8.3984 19.199-19.199 0.003906-10.801-9.5977-19.199-19.195-19.199z"/>
  <path d="m987.6 273.6v-207.6h-679.2c-72 3.6016-146.4 50.398-146.4 130.8 0 7.1992-1.1992 25.199 0 32.398v778.8c6 79.199 81.602 122.4 154.8 122.4l721.2 3.6016 1.1992-801.6v-58.801zm-387.6 696c-13.199 16.801-32.398 27.602-54 30-21.602 2.3984-42-3.6016-60-18-16.801-13.199-27.602-32.398-30-54-2.3984-21.602 3.6016-42 18-60 10.801-13.199 26.398-22.801 43.199-27.602 19.199 40.801 52.801 60 52.801 61.199 2.3984 1.1992 6 2.3984 8.3984 2.3984 6 0 12-2.3984 13.199-8.3984 3.6016-8.3984 1.1992-19.199-6-22.801-2.3984-1.1992-79.199-48-33.602-142.8 3.6016-8.3984 1.1992-19.199-8.3984-22.801-8.3984-3.6016-19.199-1.1992-22.801 8.3984-18 37.199-20.398 68.398-16.801 92.398-22.801 6-44.398 19.199-60 38.398-14.398 19.199-22.801 40.801-26.398 64.801-12-1.1992-28.801-6-42-19.199-13.199-12-20.398-31.199-20.398-55.199 0-31.199 9.6016-55.199 28.801-69.602 16.801-12 33.602-12 39.602-10.801 7.1992 3.6016 14.398 3.6016 20.398-1.1992 7.1992-7.1992 7.1992-16.801 0-22.801-12-12-40.801-9.6016-61.199-1.1992-9.6016 3.6016-20.398 10.801-31.199 21.602-22.801-40.801-16.801-84-6-112.8 2.3984 6 6 9.6016 8.3984 13.199-3.6016 13.199-6 27.602-1.1992 42v1.207c0 8.3984 6 13.199 12 16.801 1.1992 0 2.3984 1.1992 3.6016 1.1992 8.3984 0 13.199-6 16.801-12 1.1992-3.6016 0-7.1992 0-9.6016-2.3984-12-9.6016-48 60-78 8.3984-2.3984 12-13.199 8.3984-21.602-2.3984-8.3984-13.199-12-21.602-8.3984-26.398 10.801-44.398 24-58.801 39.602-9.6016-20.398-12-39.602-7.1992-58.801 8.3984-27.602 33.602-48 52.801-58.801 10.801 48 51.602 84 102 88.801 2.3984 13.199 9.6016 28.801 20.398 40.801 2.3984 2.3984 8.3984 6 12 6 3.6016 0 8.3984-1.1992 12-6 7.1992-7.1992 7.1992-16.801 0-22.801-27.602-27.602-9.6016-79.199-9.6016-80.398 2.3984-8.3984-1.1992-19.199-9.6016-20.398-8.3984-2.3984-19.199 1.1992-20.398 9.6016-1.1992 1.1992-6 19.199-8.3984 39.602-38.398-6-69.602-39.602-69.602-80.398 0-44.398 37.199-81.602 81.602-81.602 43.199 0 79.199 33.602 80.398 78v2.3984 432c8.4023 19.195 3.6016 40.797-9.5977 57.598zm306-223.2c-10.801-10.801-22.801-18-31.199-21.602-20.398-8.3984-49.199-10.801-61.199 1.1992-7.1992 7.1992-7.1992 16.801 0 22.801 6 6 14.398 7.1992 20.398 1.1992 6-1.1992 22.801-1.1992 39.602 10.801 19.199 13.199 28.801 37.199 28.801 69.602 6 27.602-1.1992 46.801-14.398 60-12 12-30 16.801-42 19.199-1.1992-22.801-9.6016-46.801-26.398-64.801-14.398-19.199-37.199-32.398-60-38.398 3.6016-26.398 1.1992-57.602-16.801-92.398-3.6016-8.3984-13.199-12-22.801-8.3984-9.6016 3.6016-12 13.199-8.3984 22.801 46.801 94.801-30 141.6-33.602 142.8-8.3984 3.6016-10.801 14.398-6 22.801 2.3984 6 8.3984 8.3984 13.199 8.3984 2.3984 0 6-1.1992 8.3984-2.3984 1.1992 0 34.801-20.398 52.801-61.199 16.801 3.6016 31.199 13.199 43.199 27.602 13.199 16.801 20.398 38.398 18 60-2.3984 21.602-12 40.801-30 54-16.801 13.199-38.398 20.398-60 18-21.602-2.3984-40.801-12-54-30-13.199-16.801-20.398-38.398-18-60v-433.21-2.3984c1.1992-42 38.398-78 80.398-78 44.398 0 81.602 37.199 81.602 81.602 0 40.801-30 73.199-69.602 80.398-1.1992-21.602-7.1992-38.398-8.3984-39.602-2.3984-8.3984-12-13.199-20.398-9.6016-8.3984 2.3984-13.199 12-9.6016 20.398 0 1.1992 18 52.801-9.6016 80.398-7.1992 7.1992-6 18 0 22.801 2.3984 2.3984 8.3984 6 12 6s8.3984-1.1992 12-6c12-12 18-26.398 20.398-40.801 49.199-3.6016 91.199-40.801 102-88.801 19.199 10.801 43.199 31.199 52.801 58.801 6 18 2.3984 37.199-7.1992 58.801-13.199-14.398-32.398-28.801-58.801-39.602-8.3984-2.3984-19.199 0-21.602 8.3984-2.3984 8.3984 0 19.199 8.3984 21.602 69.602 30 62.398 64.801 60 78-1.1992 2.3984-1.1992 6 0 9.6016 1.1992 8.3984 8.3984 12 16.801 12 1.1992 0 2.3984 0 3.6016-1.1992 8.3984-1.1992 12-8.3984 12-16.801v-1.1992c2.3984-14.398 2.3984-28.801-1.1992-42 2.3984-3.6016 6-9.6016 8.3984-13.199 12.004 28.805 19.203 72.004-3.5977 111.6zm22.801-603.6h-384c-9.6016 0-19.199 8.3984-19.199 19.199 0 9.6016 8.3984 19.199 19.199 19.199h384v93.602l-630 1.1992c-34.801-3.6016-68.398-25.199-76.801-60v-31.199c8.3984-38.398 52.801-56.398 96-56.398h610.8z"/>
 </g>
</svg>
