<?xml version="1.0" encoding="UTF-8"?>
<svg width="1200pt" height="1200pt" version="1.1" viewBox="0 0 1200 1200" xmlns="http://www.w3.org/2000/svg">
 <path d="m120 910.8h376.8v103.2h-73.199c-12 0-22.801 9.6016-22.801 22.801v64.801c0 12 9.6016 22.801 22.801 22.801h354c12 0 22.801-9.6016 22.801-22.801v-64.801c0-12-9.6016-22.801-22.801-22.801h-73.199v-103.2h375.6c51.602 0 92.398-42 92.398-92.398v-649.2c0-51.602-42-92.398-92.398-92.398h-960c-51.602 0-92.398 42-92.398 92.398v649.2c0 51.602 40.797 92.402 92.398 92.402zm33.602-708h894v580.8h-894zm571.2 258-1.1992-43.199c0-68.398-55.199-123.6-123.6-123.6h-4.8008c-66 2.3984-118.8 58.801-118.8 126v39.602h-2.3984c-18 0-32.398 14.398-32.398 32.398v150c0 18 14.398 32.398 32.398 32.398h249.6c18 0 32.398-14.398 32.398-32.398v-148.8c1.1992-18-13.199-32.398-31.199-32.398zm-100.8 145.2c1.1992 3.6016-2.3984 7.1992-6 7.1992h-36c-3.6016 0-7.1992-3.6016-6-7.1992l7.1992-34.801c-7.1992-6-10.801-15.602-9.6016-25.199 2.3984-12 12-21.602 24-22.801h3.6016c14.398 0 27.602 12 27.602 27.602 0 8.3984-3.6016 15.602-9.6016 20.398zm46.801-145.2h-139.2v-40.801c0-36 26.398-67.199 62.398-70.801h7.1992c38.398 0 69.602 31.199 69.602 69.602z"/>
</svg>
