<?xml version="1.0" encoding="UTF-8"?>
<svg width="1200pt" height="1200pt" version="1.1" viewBox="0 0 1200 1200" xmlns="http://www.w3.org/2000/svg">
 <path d="m19.199 907.2v-586.8c0-45.602 37.199-84 84-84h391.2v114h-362.4v525.6h806.4v-222h114v252c0 45.602-37.199 84-84 84h-232.8v80.398c0 16.801-13.199 30-30 30h-339.6c-16.801 0-30-13.199-30-30v-80.398h-234c-45.602 0-82.801-37.199-82.801-82.801zm645.6-252v-98.398h-13.199c-33.602 0-61.199-27.602-61.199-61.199l-0.003906-334.8c0-33.602 27.602-61.199 61.199-61.199h468c33.602 0 61.199 27.602 61.199 61.199v334.8c0 33.602-27.602 61.199-61.199 61.199h-334.8l-104.4 104.4c-6.0039 6-15.602 2.4023-15.602-6zm202.8-189.6h-45.602v45.602h45.602zm81.598 0h-45.602v45.602h45.602zm118.8-274.8h45.602v-45.602h-45.602zm0 320.4h45.602v-45.602l-45.602 0.003906zm-81.602-320.4h45.602v-45.602h-45.602zm0 320.4h45.602v-45.602h-45.602zm-81.598-320.4h45.602v-45.602h-45.602zm-82.801 0h45.602v-45.602h-45.602zm-7.1992 207.6c0 8.3984 9.6016 13.199 16.801 9.6016l128.4-74.398c7.1992-4.8008 7.1992-14.398 0-19.199l-129.6-74.398c-7.1992-4.8008-16.801 1.1992-16.801 9.6016l0.003906 148.79zm-74.402-207.6h45.602v-45.602h-45.602zm0 320.4h45.602v-45.602h-45.602zm-82.797-320.4h45.602v-45.602h-45.602zm45.598 320.4v-45.602h-45.602v45.602z"/>
</svg>
