<?xml version="1.0" encoding="UTF-8"?>
<svg width="1200pt" height="1200pt" version="1.1" viewBox="0 0 1200 1200" xmlns="http://www.w3.org/2000/svg">
 <g>
  <path d="m1134.3 124.69c0.019531-7.7422-3.043-15.172-8.5117-20.648-5.4688-5.4766-12.895-8.5547-20.637-8.5469-214.41 1.5664-392.3 143.44-386.32 336.05 0.82422 26.57 5.4766 65.68 5.3633 91.238-0.21484 90.777-78.75 128.07-80.277 156.96-2.4766 47.445 53.25 32.625 72.91 99.742 24.945 85.199-10.82 182.37 105.3 176.37 46.332-1.875 121.62-19.855 153.89 10.152 20.625 19.133 37.145 102.61 43.602 139.55v0.003907c0.875 4.9688 3.4727 9.4727 7.3398 12.715 3.8672 3.2383 8.7539 5.0117 13.801 5.0039h64.48c7.7344 0 15.148-3.0703 20.613-8.5391 5.4688-5.4688 8.5391-12.883 8.5352-20.617z"/>
  <path d="m65.719 124.69c-0.019531-7.7422 3.043-15.172 8.5117-20.648 5.4688-5.4766 12.895-8.5547 20.637-8.5469 214.41 1.5664 392.3 143.44 386.32 336.05-0.82422 26.57-5.4766 65.68-5.3633 91.238 0.21484 90.777 78.75 128.07 80.277 156.96 2.4766 47.445-53.25 32.625-72.91 99.742-24.945 85.199 10.82 182.37-105.3 176.37-46.332-1.875-121.62-19.855-153.89 10.152-20.625 19.133-37.145 102.61-43.602 139.55v0.003907c-0.875 4.9688-3.4727 9.4727-7.3398 12.715-3.8672 3.2383-8.7539 5.0117-13.801 5.0039h-64.48c-7.7344 0-15.152-3.0742-20.617-8.543-5.4688-5.4688-8.5352-12.887-8.5312-20.621z"/>
 </g>
</svg>
