<?xml version="1.0" encoding="UTF-8"?>
<svg width="1200pt" height="1200pt" version="1.1" viewBox="0 0 1200 1200" xmlns="http://www.w3.org/2000/svg">
 <g>
  <path d="m459.23 935.62c10.031 9.375 27.348 86.719 36.91 123h-151.14c-4.5078 0.027344-8.8789-1.5391-12.34-4.4219-3.4648-2.8789-5.8008-6.8906-6.5977-11.328-5.7188-33-20.719-107.53-39.094-124.59-28.781-26.719-58.312-10.688-99.656-9-103.59 5.3438-71.625-81.375-93.938-157.41-17.531-59.906-67.312-46.688-65.062-89.062 1.3125-25.781 71.438-59.062 71.625-140.06 0.09375-22.781-4.0312-57.75-4.7812-81.469-5.625-179.53 168.09-309.75 370.78-299.25 8.4375 0.46875 16.781 1.0312 25.031 1.875-55.848 16.672-106.89 46.473-148.88 86.906-28.438 27.145-50.875 59.949-65.859 96.297s-22.188 75.434-21.141 114.73c0.375 10.688 1.3125 23.062 2.3438 36.094 1.2188 16.031 2.5312 32.531 2.4375 44.812-0.09375 46.031-25.688 74.344-46.219 97.031-13.781 15.281-24.562 27.281-25.406 42.188-1.5 30 16.781 42.094 31.5 51.75 16.828 8.9023 29.215 24.379 34.219 42.75 5.1133 19.77 8.2852 39.988 9.4688 60.375 4.6875 51.188 10.031 109.03 91.312 109.03 3.0938 0 6.2812-0.09375 9.6562-0.28125 10.031-0.375 21.227-1.2461 33.094-2.8125 49.125-6.5234 57.039 8.5039 61.727 12.844z"/>
  <path d="m702.19 1058.6h-176.12c-4.4961 0.023438-8.8555-1.5469-12.305-4.4297-3.4492-2.8828-5.7656-6.8945-6.5391-11.32-5.8125-33-22.742-106.3-41.117-123.37-28.781-26.719-56.25-11.914-97.633-10.227-103.69 5.3438-71.719-81.375-94.031-157.41-17.531-59.906-67.219-46.688-65.062-89.062 1.4062-25.781 71.438-59.062 71.625-140.06 0.09375-22.781-4.0312-57.75-4.7812-81.469-5.5312-179.53 168.09-309.75 370.78-299.25 2.625 0.09375 5.1562 0.28125 7.6875 0.46875-53.645 18.348-102.3 48.898-142.12 89.25-27.5 27.5-49.062 60.352-63.348 96.523-14.289 36.168-21 74.887-19.715 113.76 0.28125 10.875 1.3125 23.906 2.3438 36.469 1.2188 15.844 2.4375 32.25 2.4375 44.156-0.09375 43.406-24.75 70.594-44.438 92.438-14.156 15.562-26.25 29.062-27.188 46.5-1.7812 34.031 19.219 47.906 34.594 58.031 15.418 7.9922 26.805 22.062 31.406 38.812 4.9492 19.316 8.0234 39.062 9.1875 58.969 4.6875 51.469 17.25 120.09 97.352 114.7 38.559-2.5977 74.551-8.4922 89.551-8.4922 19.875 0 32.523 3.0273 41.758 11.82 5.9023 6 28.84 88.34 35.676 123.19z"/>
  <path d="m1046.7 1058.6c6.0195 0.015625 11.691-2.8047 15.316-7.6094 3.6211-4.8086 4.7695-11.039 3.0938-16.82-15.816-51.98-26.461-105.39-31.781-159.46-2.2031-34.688 8.2969-82.68 29.539-110.23 84.742-109.93 122.3-205.18 104.56-322.41-28.742-189.98-162.91-290.62-348.42-300.13-202.73-10.488-376.36 119.74-370.77 299.34 0.74219 23.711 4.8828 58.613 4.7891 81.414-0.20312 81.035-70.289 114.3-71.641 140.1-2.2109 42.336 47.523 29.109 65.062 89.008 22.312 75.992-8.418 165.31 95.211 159.95 41.344-1.6602 107.3-20.27 136.11 6.5078 18.355 17.07 33.141 91.586 38.914 124.55h0.003906c0.77734 4.4336 3.0938 8.4492 6.543 11.34 3.4492 2.8906 7.8086 4.4688 12.309 4.457z"/>
 </g>
</svg>
