<?xml version="1.0" encoding="UTF-8"?>
<svg width="1200pt" height="1200pt" version="1.1" viewBox="0 0 1200 1200" xmlns="http://www.w3.org/2000/svg">
 <path d="m898.41 919.25c-2.5586-40.312 9.6484-96.066 34.332-128.09 98.438-127.74 142.11-238.43 121.5-374.64-33.395-220.76-189.31-337.7-404.88-348.76-235.59-12.188-437.34 139.12-430.85 347.81 0.85156 27.543 5.6719 68.109 5.5586 94.613-0.21484 94.145-81.676 132.82-83.242 162.78-2.5781 49.199 55.219 33.836 75.602 103.43 25.875 88.359-11.25 189.12 109.2 182.9 48.047-1.9297 126.13-20.578 159.59 10.539 21.336 19.836 38.523 106.43 45.227 144.74l0.003906-0.003906c0.90625 5.1484 3.5977 9.8125 7.6055 13.172s9.0742 5.1953 14.305 5.1836h361.58c6.9961 0.019531 13.594-3.2578 17.805-8.8438 4.207-5.5898 5.5391-12.836 3.5898-19.555-12.027-41.398-32.82-120.47-36.93-185.28zm-379.18-210.2c-1.207 2.4883-3.0977 4.5859-5.4453 6.0469-2.3477 1.4648-5.0625 2.2344-7.8281 2.2227h-8.4375l-0.30078 47.68c-0.035156 5.1523-4.2227 9.3086-9.375 9.3086h-43.828c-5.1797 0-9.375-4.1953-9.375-9.375v-47.617h-8.4375v0.003906c-3.6992-0.003906-7.2656-1.3906-9.9922-3.8945-2.7227-2.5039-4.4102-5.9375-4.7266-9.625-0.3125-3.6875 0.76562-7.3555 3.0273-10.285l36.957-47.812c3.4922-4.5156 8.8789-7.1602 14.586-7.1602 5.7109 0 11.098 2.6445 14.59 7.1602l36.957 47.812h-0.003907c1.7109 2.1719 2.7695 4.7852 3.0586 7.5312 0.28906 2.75-0.20703 5.5234-1.4258 8.0039zm0-196.22c-1.2109 2.4883-3.0977 4.582-5.4453 6.043-2.3477 1.4609-5.0625 2.2305-7.8281 2.2148h-8.4375l-0.30859 47.68-0.003906 0.003907c-0.035157 5.1523-4.2227 9.3086-9.375 9.3086h-43.816c-5.1797 0-9.375-4.1992-9.375-9.375v-47.605h-8.4375c-3.6992-0.003906-7.2656-1.3906-9.9922-3.8945-2.7227-2.5039-4.4102-5.9375-4.7266-9.625-0.3125-3.6875 0.76562-7.3555 3.0273-10.285l36.957-47.812c3.4922-4.5156 8.8789-7.1602 14.586-7.1602 5.7109 0 11.098 2.6445 14.59 7.1602l36.957 47.812h-0.003907c1.7031 2.1719 2.7617 4.7773 3.0469 7.5234 0.28906 2.7422-0.19922 5.5156-1.4141 7.9922zm0-196.22c-1.2109 2.4844-3.0977 4.582-5.4492 6.043-2.3477 1.4609-5.0586 2.2266-7.8242 2.2148h-8.4375l-0.30859 47.672h-0.003906c-0.03125 5.1562-4.2188 9.3203-9.375 9.3203h-43.816c-5.1797 0-9.375-4.1992-9.375-9.375v-47.605h-8.4375c-3.6992-0.003906-7.2656-1.3906-9.9922-3.8945-2.7227-2.5039-4.4102-5.9375-4.7266-9.625-0.3125-3.6875 0.76562-7.3555 3.0273-10.285l36.957-47.812c3.4922-4.5156 8.8789-7.1602 14.586-7.1602 5.7109 0 11.098 2.6445 14.59 7.1602l36.957 47.812h-0.003907c1.707 2.1719 2.7656 4.7852 3.0547 7.5312 0.28906 2.75-0.20312 5.5234-1.4219 8.0039zm153.26 392.44c-1.207 2.4883-3.0938 4.5859-5.4453 6.0469-2.3477 1.4648-5.0625 2.2344-7.8281 2.2227h-8.4375l-0.30078 47.68c-0.035156 5.1523-4.2227 9.3086-9.375 9.3086h-43.828c-5.1758 0-9.375-4.1953-9.375-9.375l0.046875-47.617h-8.4375v0.003906c-3.6992-0.003906-7.2656-1.3906-9.9883-3.8945-2.7266-2.5039-4.4141-5.9375-4.7266-9.625-0.31641-3.6875 0.76172-7.3555 3.0234-10.285l36.957-47.812c3.4922-4.5156 8.8789-7.1602 14.586-7.1602 5.7109 0 11.098 2.6445 14.59 7.1602l36.957 47.812c1.6992 2.1758 2.75 4.7891 3.0312 7.5391s-0.22266 5.5195-1.4492 7.9961zm0-196.22c-1.207 2.4883-3.0977 4.582-5.4453 6.043-2.3477 1.4609-5.0625 2.2305-7.8281 2.2148h-8.4375l-0.30859 47.68v0.003907c-0.039062 5.1523-4.2227 9.3086-9.375 9.3086h-43.82c-5.1758 0-9.375-4.1992-9.375-9.375l0.046875-47.605h-8.4375c-3.6992-0.003906-7.2656-1.3906-9.9883-3.8945-2.7266-2.5039-4.4141-5.9375-4.7266-9.625-0.31641-3.6875 0.76172-7.3555 3.0234-10.285l36.957-47.812c3.4922-4.5156 8.8789-7.1602 14.586-7.1602 5.7109 0 11.098 2.6445 14.59 7.1602l36.957 47.812c1.6953 2.1758 2.7422 4.7852 3.0195 7.5312 0.28125 2.7422-0.21484 5.5117-1.4375 7.9844zm0-196.22c-1.2109 2.4844-3.0977 4.582-5.4453 6.043-2.3516 1.4609-5.0625 2.2266-7.8281 2.2148h-8.4375l-0.30859 47.672c-0.03125 5.1562-4.2227 9.3203-9.375 9.3203h-43.82c-5.1758 0-9.375-4.1992-9.375-9.375l0.046875-47.605h-8.4375c-3.6992-0.003906-7.2656-1.3906-9.9883-3.8945-2.7266-2.5039-4.4141-5.9375-4.7266-9.625-0.31641-3.6875 0.76172-7.3555 3.0234-10.285l36.957-47.812c3.4922-4.5156 8.8789-7.1602 14.586-7.1602 5.7109 0 11.098 2.6445 14.59 7.1602l36.957 47.812c1.6953 2.1797 2.7461 4.793 3.0273 7.5391 0.28125 2.7461-0.21875 5.5195-1.4453 7.9961zm153.27 392.44c-1.2109 2.4883-3.1016 4.5859-5.4531 6.0469-2.3477 1.4648-5.0625 2.2344-7.832 2.2227h-8.4375l-0.30078 47.68c-0.035156 5.1523-4.2227 9.3086-9.375 9.3086h-43.816c-5.1797 0-9.375-4.1953-9.375-9.375v-47.617h-8.4375v0.003906c-3.7031 0-7.2695-1.3906-9.9961-3.8945-2.7227-2.5-4.4102-5.9375-4.7227-9.625s0.76953-7.3594 3.0352-10.285l36.945-47.812h0.003906c3.4922-4.5156 8.8789-7.1602 14.59-7.1602 5.7109 0 11.098 2.6445 14.594 7.1602l36.945 47.812c1.707 2.1719 2.7656 4.7852 3.0547 7.5312 0.28906 2.75-0.20703 5.5234-1.4219 8.0039zm0-196.22c-1.2109 2.4883-3.1016 4.582-5.4531 6.043-2.3477 1.4609-5.0664 2.2305-7.832 2.2148h-8.4375l-0.30859 47.68v0.003907c-0.035156 5.1523-4.2227 9.3086-9.375 9.3086h-43.809c-5.1797 0-9.375-4.1992-9.375-9.375v-47.605h-8.4375c-3.7031 0-7.2695-1.3906-9.9961-3.8945-2.7227-2.5-4.4102-5.9375-4.7227-9.625s0.76953-7.3594 3.0352-10.285l36.945-47.812h0.003906c3.4922-4.5156 8.8789-7.1602 14.59-7.1602 5.7109 0 11.098 2.6445 14.594 7.1602l36.945 47.812c1.7031 2.1719 2.7578 4.7812 3.043 7.5234 0.28906 2.7422-0.19922 5.5117-1.4102 7.9922zm0-196.22c-1.2148 2.4844-3.1055 4.582-5.4531 6.043-2.3516 1.4609-5.0664 2.2266-7.832 2.2148h-8.4375l-0.30859 47.672c-0.03125 5.1562-4.2188 9.3203-9.375 9.3203h-43.809c-5.1797 0-9.375-4.1992-9.375-9.375v-47.605h-8.4375c-3.7031 0-7.2695-1.3906-9.9961-3.8945-2.7227-2.5-4.4102-5.9375-4.7227-9.625s0.76953-7.3594 3.0352-10.285l36.945-47.812h0.003906c3.4922-4.5156 8.8789-7.1602 14.59-7.1602 5.7109 0 11.098 2.6445 14.594 7.1602l36.945 47.812c1.7031 2.1758 2.7617 4.7852 3.0508 7.5312 0.28906 2.75-0.20312 5.5234-1.418 8.0039z"/>
</svg>
