<?xml version="1.0" encoding="UTF-8"?>
<svg width="1200pt" height="1200pt" version="1.1" viewBox="0 0 1200 1200" xmlns="http://www.w3.org/2000/svg">
 <g>
  <path d="m673.53 373.43-12.777 156.25c-0.8125 9.9336-6.5898 18.789-15.355 23.535s-19.336 4.7461-28.098 0c-8.7656-4.7461-14.543-13.602-15.355-23.535l-12.789-156.25c-1.2305-15.07 5.6719-29.656 18.105-38.258 12.438-8.6055 28.52-9.9219 42.188-3.4531 13.672 6.4688 22.852 19.738 24.082 34.812 0.17969 2.2969 0.17969 4.6016 0 6.8984z"/>
  <path d="m657.71 607.81c0 14.566-11.805 26.371-26.371 26.371-14.562 0-26.371-11.805-26.371-26.371 0-14.562 11.809-26.371 26.371-26.371 14.566 0 26.371 11.809 26.371 26.371"/>
  <path d="m898.41 919.25c-2.5586-40.312 9.6484-96.066 34.332-128.09 98.438-127.74 142.11-238.43 121.5-374.64-33.395-220.76-189.31-337.7-404.88-348.76-235.59-12.188-437.34 139.12-430.85 347.81 0.85156 27.543 5.6719 68.109 5.5586 94.613-0.21484 94.145-81.676 132.82-83.242 162.78-2.5781 49.199 55.219 33.836 75.602 103.43 25.875 88.359-11.25 189.12 109.2 182.9 48.047-1.9297 126.13-20.578 159.59 10.539 21.336 19.836 38.523 106.43 45.227 144.74l0.003906-0.003906c0.90625 5.1484 3.5977 9.8125 7.6055 13.172s9.0742 5.1953 14.305 5.1836h361.58c6.9961 0.019531 13.594-3.2578 17.805-8.8438 4.207-5.5898 5.5391-12.836 3.5898-19.555-12.027-41.398-32.82-120.47-36.93-185.28zm-263.36-166.12c-55.012 0-108.79-16.312-154.52-46.871-45.738-30.562-81.387-74-102.44-124.82-21.051-50.82-26.555-106.74-15.824-160.7 10.734-53.953 37.223-103.51 76.121-142.41 38.898-38.898 88.457-65.387 142.41-76.117 53.953-10.73 109.88-5.2188 160.7 15.832 50.82 21.055 94.258 56.703 124.82 102.44s46.871 99.516 46.867 154.52c0 48.82-12.852 96.781-37.262 139.06-24.41 42.277-59.52 77.387-101.8 101.8-42.281 24.41-90.242 37.262-139.06 37.258z"/>
 </g>
</svg>
