<?xml version="1.0" encoding="UTF-8"?>
<svg width="1200pt" height="1200pt" version="1.1" viewBox="0 0 1200 1200" xmlns="http://www.w3.org/2000/svg">
 <g>
  <path d="m862.83 1148.7c1.7617 6.125 0.54297 12.719-3.293 17.805-3.832 5.0898-9.8359 8.0781-16.207 8.0703h-330c-4.7734 0.011719-9.3984-1.668-13.051-4.7383-3.6562-3.0703-6.1055-7.3359-6.918-12.043-6.0938-34.969-21.75-113.91-41.25-132.09-30.562-28.312-101.81-11.344-145.69-9.5625-109.88 5.7188-76.031-86.25-99.562-166.88-18.656-63.562-71.344-49.5-69-94.406 1.4062-27.375 75.75-62.625 75.938-148.59 0.09375-24.188-4.3125-61.125-5.0625-86.344-4.9688-161.25 126.28-285 297.19-312.38-20.562 60.895-20.855 126.81-0.83984 187.89 20.016 61.078 59.266 114.03 111.88 150.95 52.613 36.914 115.77 55.801 180.01 53.836 64.242-1.9609 126.12-24.672 176.39-64.73 13.5 117.66-26.625 215.25-112.88 327.19-22.5 29.25-33.656 80.062-31.312 116.91 3.75 59.148 22.688 131.34 33.656 169.12z"/>
  <path d="m788.02 25.398c-54.234-0.007813-107.25 16.066-152.35 46.191-45.102 30.129-80.25 72.949-101.01 123.05-20.762 50.105-26.195 105.24-15.621 158.43 10.578 53.195 36.691 102.06 75.039 140.41 38.348 38.352 87.207 64.473 140.4 75.055 53.191 10.586 108.33 5.1562 158.44-15.598 50.105-20.754 92.934-55.898 123.07-100.99 30.133-45.094 46.215-98.113 46.215-152.35 0-72.719-28.883-142.46-80.301-193.88-51.418-51.422-121.15-80.316-193.87-80.324zm0 471.23v-0.003906c-51.422 0-100.74-20.426-137.11-56.789-36.359-36.363-56.789-85.68-56.789-137.11 0-51.422 20.43-100.74 56.789-137.1 36.363-36.363 85.684-56.789 137.11-56.789s100.74 20.426 137.11 56.789c36.359 36.363 56.789 85.68 56.789 137.1 0 51.426-20.43 100.74-56.789 137.11-36.363 36.363-85.684 56.789-137.11 56.789z"/>
  <path d="m788.02 181.68c-32.105 0-62.895 12.75-85.594 35.453-22.703 22.703-35.457 53.492-35.457 85.594 0 32.105 12.754 62.895 35.457 85.598 22.699 22.699 53.488 35.453 85.594 35.453s62.895-12.754 85.594-35.453c22.703-22.703 35.457-53.492 35.457-85.598 0-32.102-12.754-62.891-35.457-85.594-22.699-22.703-53.488-35.453-85.594-35.453zm0 162.57c-11.012 0-21.574-4.375-29.359-12.16-7.7891-7.7891-12.164-18.348-12.164-29.363 0-11.012 4.375-21.57 12.164-29.359 7.7852-7.7852 18.348-12.16 29.359-12.16s21.574 4.375 29.359 12.16c7.7891 7.7891 12.164 18.348 12.164 29.359 0 11.016-4.375 21.574-12.164 29.363-7.7852 7.7852-18.348 12.16-29.359 12.16z"/>
 </g>
</svg>
