<?xml version="1.0" encoding="UTF-8"?>
<svg width="1200pt" height="1200pt" version="1.1" viewBox="0 0 1200 1200" xmlns="http://www.w3.org/2000/svg">
 <g>
  <path d="m92.398 892.8c258-25.199 517.2-32.398 776.4-21.602 73.199 3.6016 146.4 8.3984 219.6 12 9.6016 0 27.602-25.199 20.398-26.398-258-25.199-520.8-24-780-6-73.199 4.8008-146.4 10.801-218.4 19.199-6 1.1992-12 6-15.602 10.801-1.1953 1.1992-8.3984 13.199-2.3984 12z"/>
  <path d="m356.4 942c-6 0-12 6-15.602 10.801-1.1992 1.1992-8.3984 13.199-2.3984 12 242.4-18 486-19.199 729.6-13.199 9.6016 0 28.801-27.602 21.602-27.602-244.8-13.199-489.6-3.6016-733.2 18z"/>
  <path d="m550.8 352.8c6 3.6016 22.801-14.398 19.199-20.398-7.1992-10.801-8.3984-25.199-6-38.398 0-2.3984 1.1992-6 2.3984-8.3984 4.8008-1.1992 12-4.8008 18-6 24-4.8008 50.398-2.3984 75.602 1.1992 49.199 7.1992 117.6 27.602 106.8 90-3.6016 22.801-15.602 39.602-32.398 56.398-21.602 21.602-44.398 40.801-62.398 66-30 39.602-46.801 88.801-34.801 138 2.3984 12 44.398-22.801 42-37.199-3.6016-22.801-3.6016-46.801 3.6016-69.602 7.1992-25.199 22.801-42 40.801-60 34.801-33.602 74.398-72 84-122.4 3.6016-19.199 2.3984-38.398-7.1992-55.199-12-21.602-37.199-32.398-60-39.602-45.602-13.199-104.4-21.602-148.8-1.1992-30.004 15.598-92.406 80.395-40.805 106.8z"/>
  <path d="m634.8 757.2c3.6016-1.1992 8.3984-2.3984 12-3.6016 4.8008-1.1992 9.6016-6 13.199-10.801 1.1992-1.1992 6-9.6016 1.1992-9.6016h-4.8008c1.1992-2.3984 1.1992-3.6016 1.1992-6 0-2.3984 0-3.6016-2.3984-4.8008h-1.1992s0-1.1992-1.1992-1.1992c-1.1992-1.1992-4.8008 0-6 0h-10.801c-7.1992 1.1992-13.199 6-18 12-1.1992 2.3984-10.801 13.199-7.1992 15.602 6 3.6016 12 3.6016 18 0 0 1.1992-1.1992 1.1992-1.1992 2.3984 2.3984 4.8047 3.5977 6.0039 7.1992 6.0039z"/>
 </g>
</svg>
