<?xml version="1.0" encoding="UTF-8"?>
<svg width="1200pt" height="1200pt" version="1.1" viewBox="0 0 1200 1200" xmlns="http://www.w3.org/2000/svg">
 <g>
  <path d="m376.8 501.6c9.6016-3.6016 7.1992-44.398-1.1992-42-38.398 8.3984-84-24-79.199-64.801 3.6016-37.199 28.801-75.602 52.801-103.2 44.398-51.602 111.6-91.199 180-93.602 32.398-1.1992 66 4.8008 93.602 21.602 37.199 22.801 48 54 40.801 96-15.602 88.801-48 174-91.199 253.2-45.602 85.199-99.602 166.8-130.8 259.2-3.6016 12-4.8008 31.199 1.1992 43.199 4.8008 9.6016 9.6016 10.801 13.199 0 37.199-108 106.8-199.2 154.8-301.2 22.801-50.398 42-103.2 56.398-157.2 13.199-51.602 25.199-104.4 18-158.4-12-88.801-93.602-129.6-176.4-117.6-86.398 12-162 74.398-200.4 151.2-22.801 45.602-36 98.398-24 148.8 7.1953 43.199 45.594 82.801 92.395 64.801z"/>
  <path d="m520.8 1069.2c-2.3984 0-4.8008 2.3984-6 4.8008-1.1992 2.3984-3.6016 4.8008-4.8008 7.1992-1.1992 3.6016-2.3984 6-3.6016 9.6016-3.6016 9.6016-4.8008 20.398-3.6016 30 0 3.6016 1.1992 8.3984 2.3984 12 1.1992 2.3984 3.6016 7.1992 6 7.1992h6c2.3984 0 6-2.3984 8.3984-4.8008 2.3984-2.3984 3.6016-6 4.8008-8.3984 0-2.3984 1.1992-4.8008 1.1992-7.1992 2.3984-9.6016 1.1992-20.398 0-30-1.1992-6-2.3984-13.199-7.1992-18 0.003907-1.2031-2.3945-2.4023-3.5938-2.4023z"/>
  <path d="m874.8 823.2c3.6016 22.801 13.199 10.801 13.199-6-1.1992-118.8-7.1992-238.8-9.6016-357.6-1.1992-99.602 2.3984-199.2 3.6016-298.8 2.3984-2.3984 4.8008-6 6-9.6016 4.8008-13.199 4.8008-31.199 1.1992-44.398-2.3984-9.6016-4.8008-18-7.1992-27.602-1.1992-6-4.8008-22.801-14.398-20.398-9.6016 2.3984-10.801 24-10.801 31.199-8.3984 122.4-7.1992 247.2-4.8008 369.6 2.3984 121.2 6 243.6 22.801 363.6z"/>
  <path d="m873.6 1065.6c-3.6016 13.199-3.6016 27.602 0 39.602 1.1992 3.6016 2.3984 8.3984 6 10.801 3.6016 2.3984 7.1992 0 8.3984-3.6016 4.8008-10.801 12-18 24-20.398 9.6016-1.1992 9.6016-22.801 9.6016-30 0-7.1992-1.1992-14.398-3.6016-21.602-1.1992-2.3984-3.6016-8.3984-7.1992-8.3984-19.199 2.3945-32.402 15.598-37.199 33.598z"/>
 </g>
</svg>
