<?xml version="1.0" encoding="UTF-8"?>
<svg width="1200pt" height="1200pt" version="1.1" viewBox="0 0 1200 1200" xmlns="http://www.w3.org/2000/svg">
 <g>
  <path d="m745.2 87.602c-94.801-28.801-216-44.398-308.4-2.3984-63.602 28.801-193.2 164.4-85.199 218.4 13.199 6 48-28.801 39.602-42-14.398-22.801-18-52.801-10.801-80.398 1.1992-6 3.6016-10.801 6-16.801 10.801-1.1992 24-10.801 36-13.199 50.398-10.801 105.6-4.8008 156 3.6016 100.8 15.602 242.4 57.602 220.8 187.2-8.3984 48-32.398 82.801-66 116.4-44.398 44.398-91.199 85.199-129.6 135.6-61.199 81.602-96 184.8-72 285.6 6 25.199 91.199-46.801 86.398-75.602-6-46.805-6-96.004 8.3984-144 15.602-50.398 46.801-86.398 85.199-123.6 73.199-70.801 154.8-147.6 174-252 7.1992-39.602 4.8008-79.199-15.602-114-25.195-45.598-76.797-67.199-124.8-82.797z"/>
  <path d="m579.6 1092c-2.3984 0-6 0-8.3984 1.1992 1.1992-3.6016 2.3984-8.3984 3.6016-12 0-4.8008 1.1992-7.1992-4.8008-9.6016h-2.3984c0-1.1992-1.1992-2.3984-1.1992-3.6016-3.6016-3.6016-9.6016-1.1992-13.199 1.1992-7.1992 0-14.398 0-21.602 1.1992-14.398 2.3984-26.398 13.199-36 24-3.6016 4.8008-22.801 27.602-14.398 33.602 13.199 8.3984 25.199 6 37.199 1.1992-1.1992 1.1992-1.1992 3.6016-1.1992 4.8008-1.1992 6 1.1992 9.6016 7.1992 7.1992 8.3984-2.3984 16.801-4.8008 25.199-7.1992 10.801-2.3984 20.398-13.199 26.398-21.602 2.3945-4.793 13.195-21.594 3.5977-20.395z"/>
 </g>
</svg>
