<?xml version="1.0" encoding="UTF-8"?>
<svg width="1200pt" height="1200pt" version="1.1" viewBox="0 0 1200 1200" xmlns="http://www.w3.org/2000/svg">
 <g>
  <path d="m957.6 598.8c-64.801 229.2-297.6 552-570 406.8-60-32.402-111.6-86.402-132-153.6-1.1992-4.8008-7.1992-24-14.398-24-8.3984 0-4.8008 13.199-3.6016 18 36 123.6 141.6 220.8 271.2 237.6 154.8 19.199 288-96 372-214.8 49.199-70.801 82.801-148.8 102-231.6 1.1992-12-20.402-54-25.199-38.398z"/>
  <path d="m966 495.6c-14.398-3.6016-24 16.801-30 26.398-12 18-25.199 34.801-37.199 52.801-24 36-46.801 73.199-69.602 109.2-4.8008 8.3984 10.801 39.602 15.602 32.398 33.602-49.199 69.602-98.398 105.6-146.4 3.6016-4.8008 7.1992-9.6016 10.801-14.398 0 0 13.199-14.398 13.199-19.199 3.6016 6 8.3984 36 8.3984 39.602 6 31.199 10.801 62.398 14.398 92.398 1.1992 7.1992 20.398 42 20.398 20.398-1.1992-38.398-7.1992-75.602-15.602-114-4.7969-16.801-11.996-74.402-35.996-79.199zm7.1992 39.598c1.1992 0 1.1992 0 0 0 1.1992 0 1.1992 0 0 0z"/>
  <path d="m271.2 639.6c61.199-45.602 117.6-96 172.8-148.8 10.801-10.801-15.602-64.801-26.398-54-38.398 39.602-79.199 78-120 115.2 45.602-118.8 109.2-229.2 208.8-312 54-44.398 124.8-85.199 198-75.602 37.199 4.8008 63.602 25.199 79.199 58.801 13.199 27.602 22.801 57.602 37.199 84 10.801 20.398 9.6016-9.6016 6-18-30-57.602-39.602-136.8-106.8-164.4-72-28.801-156 7.1992-213.6 49.199-115.2 85.199-206.4 220.8-240 360-2.3984 9.6016 3.6016 22.801 8.3984 30 0 1.1992 1.1992 2.3984 3.6016 4.8008-7.1992 6-13.199 12-20.398 18-9.6016-20.398-18-40.801-28.801-61.199-12-24-25.199-52.801-42-74.398-7.1992-9.6016-4.8008 8.3984-3.6016 12 21.602 52.801 50.398 102 70.801 154.8 1.2031 3.5977 10.801 25.195 16.801 21.598z"/>
 </g>
</svg>
