<?xml version="1.0" encoding="UTF-8"?>
<svg width="1200pt" height="1200pt" version="1.1" viewBox="0 0 1200 1200" xmlns="http://www.w3.org/2000/svg">
 <g>
  <path d="m180 349.2c-1.1992 19.199 0 42 10.801 58.801 6 9.6016 14.398 18 25.199 22.801 13.199 6 22.801 2.3984 36-4.8008 8.3984-4.8008 7.1992-26.398 6-33.602 0-4.8008-1.1992-14.398-3.6016-20.398 7.1992-21.602 7.1992-51.602-8.3984-68.398-13.199-14.398-36-8.3984-49.199 3.6016-12 10.797-15.602 26.398-16.801 41.996zm21.602-4.8008c1.1992 0 1.1992 0 0 0v0z"/>
  <path d="m682.8 261.6c0-7.1992-1.1992-14.398-3.6016-21.602-1.1992-3.6016-3.6016-10.801-8.3984-10.801 12 0-8.3984-28.801-13.199-32.398-19.199-12-27.602 26.398-28.801 37.199-2.3984 13.199-2.3984 27.602-2.3984 40.801 0 18 2.3984 39.602 9.6016 56.398 2.3984 6 4.8008 12 7.1992 19.199 2.3984 7.1992 6 16.801 14.398 19.199 7.1992 2.3984 12-2.3984 15.602-9.6016 4.8008-8.3984 6-18 8.3984-26.398 2.3984-14.398 3.6016-30 2.3984-45.602-1.1992-7.1953-1.1992-19.195-1.1992-26.395z"/>
  <path d="m608.4 930c160.8-90 314.4-211.2 405.6-373.2 8.3984-14.398 7.1992-36 4.8008-51.602-1.1992-3.6016-8.3984-33.602-16.801-24-104.4 118.8-218.4 226.8-349.2 314.4-70.801 48-146.4 97.199-230.4 117.6-62.398 15.602-192 22.801-213.6-60-9.6016-36-19.199 15.602-15.602 30 39.602 195.6 301.2 111.6 415.2 46.797z"/>
 </g>
</svg>
