<?xml version="1.0" encoding="UTF-8"?>
<svg width="1200pt" height="1200pt" version="1.1" viewBox="0 0 1200 1200" xmlns="http://www.w3.org/2000/svg">
 <path d="m120 910.8h376.8v103.2h-73.199c-12 0-22.801 9.6016-22.801 22.801v64.801c0 12 9.6016 22.801 22.801 22.801h354c12 0 22.801-9.6016 22.801-22.801v-64.801c0-12-9.6016-22.801-22.801-22.801h-73.199v-103.2h375.6c51.602 0 92.398-42 92.398-92.398v-649.2c0-51.602-42-92.398-92.398-92.398h-960c-51.602 0-92.398 42-92.398 92.398v649.2c0 51.602 40.797 92.402 92.398 92.402zm33.602-708h894v580.8h-894zm90 372v-42c0-6 4.8008-10.801 10.801-10.801h288c6 0 10.801 4.8008 10.801 10.801v42c0 6-4.8008 10.801-10.801 10.801h-288c-6.0039 0-10.801-4.8008-10.801-10.801zm465.6 78v42c0 6-4.8008 10.801-10.801 10.801h-444c-6 0-10.801-4.8008-10.801-10.801v-42c0-6 4.8008-10.801 10.801-10.801h444c6 0 10.801 4.8008 10.801 10.801zm153.6-241.2v42c0 6-4.8008 10.801-10.801 10.801l-598.8-0.003906c-6 0-10.801-4.8008-10.801-10.801v-42c0-6 4.8008-10.801 10.801-10.801l598.8 0.003906c6 0 10.801 4.8008 10.801 10.801zm-619.2-76.801v-42c0-6 4.8008-10.801 10.801-10.801h513.6c6 0 10.801 4.8008 10.801 10.801v42c0 6-4.8008 10.801-10.801 10.801h-514.8c-4.8008 0-9.5977-4.8008-9.5977-10.801z"/>
</svg>
