<?xml version="1.0" encoding="UTF-8"?>
<svg width="1200pt" height="1200pt" version="1.1" viewBox="0 0 1200 1200" xmlns="http://www.w3.org/2000/svg">
 <g>
  <path d="m86.398 424.8c8.3984 4.8008 10.801-34.801 2.3984-40.801-24-16.801-7.1992-44.398 4.8008-64.801 14.398-25.199 34.801-46.801 58.801-62.398 50.398-30 112.8-14.398 150 28.801 96 106.8-50.398 244.8-98.398 338.4-34.801 66-54 150-30 223.2 2.3984 8.3984 8.3984 13.199 14.398 4.8008 7.1992-9.6016 6-28.801 4.8008-39.602-6-40.801 1.1992-74.398 19.199-111.6 16.801-34.801 38.398-67.199 60-99.602 44.398-66 82.801-136.8 85.199-218.4 2.3984-72-18-153.6-86.398-189.6-61.199-32.398-127.2-4.8008-166.8 48-21.602 28.801-37.199 62.398-42 98.398-4.7969 28.805-3.5977 69.605 24 85.207z"/>
  <path d="m175.2 1035.6c1.1992 3.6016 3.6016 15.602 8.3984 12 13.199-8.3984 22.801-20.398 28.801-33.602 4.8008-10.801 6-31.199-2.3984-40.801-7.1992-7.1992-18-3.6016-21.602 4.8008-2.3984 6-4.8008 14.398-4.8008 21.602-2.3984 3.6016-3.6016 6-6 9.6016-4.7969 7.1953-3.5977 19.195-2.3984 26.398z"/>
  <path d="m698.4 409.2c20.398-62.398 25.199-144-14.398-200.4-36-50.398-94.801-62.398-145.2-27.602-55.199 37.199-100.8 110.4-88.801 178.8 3.6016 21.602 10.801-6 9.6016-14.398-3.6016-31.199 27.602-66 48-86.398 18-19.199 42-36 68.398-40.801 52.801-9.6016 108 28.801 116.4 82.801 4.8008 30-8.3984 63.602-21.602 90-13.199 28.801-30 56.398-46.801 84-32.398 51.602-66 102-85.199 159.6-24 67.199-27.602 142.8-4.8008 211.2 4.8008 14.398 13.199 12 18 0 6-15.602 4.8008-38.398-1.1992-54-22.801-63.602 14.398-133.2 45.602-187.2 36-66.004 79.203-126 102-195.61z"/>
  <path d="m559.2 1033.2c1.1992-1.1992 2.3984-3.6016 3.6016-6 3.6016-8.3984 4.8008-18 4.8008-27.602 0-6 0-10.801-1.1992-16.801-1.1992-6-4.8008-24-13.199-19.199-2.3984 1.1992-4.8008 2.3984-6 4.8008-2.3984 2.3984-4.8008 7.1992-7.1992 9.6016-3.6016 4.8008-4.8008 14.398-4.8008 20.398 0 7.1992 0 14.398 1.1992 21.602 1.1992 4.8008 3.6016 19.199 9.6016 20.398 2.3984 2.3984 4.8008 3.6016 7.1992 2.3984 2.3984-1.1953 4.7969-4.7969 5.9961-9.5977z"/>
  <path d="m847.2 327.6c-1.1992 6-2.3984 20.398 2.3984 24 4.8008 3.6016 7.1992 0 8.3984-6 8.3984-52.801 46.801-94.801 94.801-117.6 43.199-20.398 116.4-31.199 154.8 6 21.602 21.602 10.801 55.199 3.6016 81.602-9.6016 30-22.801 57.602-37.199 84-28.801 56.398-61.199 110.4-79.199 171.6-22.801 76.801-31.199 159.6-33.602 238.8 0 9.6016-2.3984 40.801 9.6016 45.602s14.398-20.398 14.398-26.398c7.1992-82.801 9.6016-165.6 39.602-243.6 26.398-68.398 68.398-129.6 93.602-198 12-33.602 20.398-68.398 22.801-104.4 2.3984-32.398 0-73.199-20.398-99.602-34.801-48-114-36-160.8-12-61.203 29.996-104.4 88.793-112.8 156z"/>
  <path d="m928.8 1048.8c1.1992-1.1992 3.6016-2.3984 4.8008-2.3984h3.6016c2.3984 1.1992 3.6016 1.1992 6 2.3984 3.6016 1.1992 6-7.1992 7.1992-8.3984 3.6016-10.801 3.6016-22.801 1.1992-33.602-1.1992-3.6016-2.3984-13.199-8.3984-13.199h-2.3984c-1.1992-1.1992-3.6016-2.3984-6-1.1992-3.6016 2.3984-7.1992 4.8008-10.801 8.3984-3.6016 2.3984-4.8008 8.3984-4.8008 12-1.1992 6-1.1992 13.199 0 19.199-1.2031 2.3984 1.1953 21.602 9.5977 16.801z"/>
 </g>
</svg>
