<?xml version="1.0" encoding="UTF-8"?>
<svg width="1200pt" height="1200pt" version="1.1" viewBox="0 0 1200 1200" xmlns="http://www.w3.org/2000/svg">
 <path d="m18 806.4v-614.4c0-48 39.602-87.602 87.602-87.602h909.6c48 0 87.602 39.602 87.602 87.602v470.4l-118.8-40.801-0.003906-397.2h-847.2v549.6h711.6l40.801 120h-231.6v97.199h69.602c12 0 21.602 9.6016 21.602 21.602v61.199c0 12-9.6016 21.602-21.602 21.602h-334.8c-12 0-21.602-9.6016-21.602-21.602v-61.199c0-12 9.6016-21.602 21.602-21.602h69.602v-97.199h-356.4c-48 0-87.602-38.398-87.602-87.602zm418.8-351.6c-2.3984 1.1992-3.6016 3.6016-4.8008 6-1.1992 2.3984-2.3984 6-3.6016 10.801l-20.398 70.797-19.199-64.801c-2.3984-6-3.6016-10.801-4.8008-13.199-1.1992-2.3984-2.3984-4.8008-6-7.1992-2.3984-2.3984-6-3.6016-10.801-3.6016s-8.3984 1.1992-10.801 3.6016c-2.3984 2.3984-4.8008 4.8008-6 7.1992-1.1992 2.3984-2.3984 7.1992-4.8008 14.398l-19.199 64.801-20.398-69.602c-2.3984-7.1992-3.6016-12-6-15.602-2.3984-2.3984-4.8008-4.8008-10.801-4.8008-3.6016 0-7.1992 1.1992-9.6016 3.6016-2.3984 2.3984-3.6016 6-3.6016 9.6016 0 2.3984 1.1992 7.1992 3.6016 14.398l25.199 75.602c1.1992 2.3984 1.1992 4.8008 2.3984 8.3984 1.1992 3.6016 2.3984 6 4.8008 8.3984 1.1992 2.3984 3.6016 4.8008 6 6 2.3984 1.1992 4.8008 2.3984 8.3984 2.3984 7.1992 0 12-2.3984 14.398-6 2.3984-4.8008 4.8008-10.801 7.1992-19.199l16.801-61.199 18 61.199c1.1992 6 2.3984 9.6016 4.8008 13.199 1.1992 3.6016 3.6016 6 6 8.3984s6 3.6016 10.801 3.6016 8.3984-1.1992 10.801-3.6016c2.3984-2.3984 4.8008-4.8008 6-7.1992 1.1992-2.3984 2.3984-7.1992 4.8008-13.199l30.004-77.992c2.3984-6 3.6016-10.801 3.6016-14.398 0-3.6016-1.1992-6-3.6016-9.6016-2.3984-2.3984-6-3.6016-9.6016-3.6016-4.7969 0-8.3984 1.2031-9.5977 2.4023zm190.8 0c-2.3984 1.1992-3.6016 3.6016-4.8008 6-1.1992 2.3984-2.3984 6-3.6016 10.801l-19.199 70.797-19.199-64.801c-2.3984-6-3.6016-10.801-4.8008-13.199-1.1992-2.3984-2.3984-4.8008-6-7.1992-2.3984-2.3984-6-3.6016-10.801-3.6016s-8.3984 1.1992-10.801 3.6016c-2.3984 2.3984-4.8008 4.8008-6 7.1992-1.1992 2.3984-2.3984 7.1992-4.8008 14.398l-19.199 64.801-20.398-69.602c-2.3984-7.1992-3.6016-12-6-15.602-2.3984-2.3984-4.8008-4.8008-10.801-4.8008-3.6016 0-7.1992 1.1992-9.6016 3.6016-2.3984 2.3984-3.6016 6-3.6016 9.6016 0 2.3984 1.1992 7.1992 3.6016 14.398l25.199 75.602c1.1992 2.3984 1.1992 4.8008 2.3984 8.3984 1.1992 3.6016 2.3984 6 4.8008 8.3984 1.1992 2.3984 3.6016 4.8008 6 6 2.3984 1.1992 4.8008 2.3984 8.3984 2.3984 7.1992 0 12-2.3984 14.398-6 2.3984-4.8008 4.8008-10.801 7.1992-19.199l16.801-61.199 18 61.199c1.1992 6 2.3984 9.6016 4.8008 13.199 1.1992 3.6016 3.6016 6 6 8.3984s6 3.6016 10.801 3.6016 8.3984-1.1992 10.801-3.6016c2.3984-2.3984 4.8008-4.8008 6-7.1992 1.1992-2.3984 2.3984-7.1992 4.8008-13.199l25.199-75.602c2.3984-6 3.6016-10.801 3.6016-14.398 0-3.6016-1.1992-6-3.6016-9.6016-2.3984-2.3984-6-3.6016-9.6016-3.6016-1.1953-2.3906-3.5938-1.1875-5.9922 0.011719zm192 0c-2.3984 1.1992-3.6016 3.6016-4.8008 6-1.1992 2.3984-2.3984 6-3.6016 10.801l-20.398 69.602-19.199-64.801c-2.3984-6-3.6016-10.801-4.8008-13.199s-2.3984-4.8008-6-7.1992c-2.3984-2.3984-6-3.6016-10.801-3.6016s-8.3984 1.1992-10.801 3.6016c-2.3984 2.3984-4.8008 4.8008-4.8008 7.1992-1.1992 2.3984-2.3984 7.1992-4.8008 14.398l-19.199 64.801-20.398-69.602c-2.3984-7.1992-3.6016-12-6-15.602-2.3984-2.3984-4.8008-4.8008-10.801-4.8008-3.6016 0-7.1992 1.1992-9.6016 3.6016-2.3984 2.3984-3.6016 6-3.6016 9.6016 0 2.3984 1.1992 7.1992 3.6016 14.398l25.199 75.602c1.1992 2.3984 1.1992 4.8008 2.3984 8.3984 1.1992 3.6016 2.3984 6 4.8008 8.3984 1.1992 2.3984 3.6016 4.8008 6 6 2.3984 1.1992 4.8008 2.3984 8.3984 2.3984 7.1992 0 12-2.3984 14.398-6 2.3984-4.8008 4.8008-10.801 7.1992-19.199l16.801-61.199 18 61.199c1.1992 6 2.3984 9.6016 4.8008 13.199 1.1992 3.6016 3.6016 6 6 8.3984 2.3984 2.3984 6 3.6016 10.801 3.6016s8.3984-1.1992 10.801-3.6016c2.3984-2.3984 4.8008-4.8008 6-7.1992 1.1992-2.3984 2.3984-7.1992 4.8008-13.199l25.199-75.602c2.3984-6 3.6016-10.801 3.6016-14.398 0-3.6016-1.1992-6-3.6016-9.6016-2.3984-2.3984-6-3.6016-9.6016-3.6016-1.1953-1.1953-4.793 0.007812-5.9922 1.207zm278.4 373.2 56.398-56.398c2.3984-2.3984 1.1992-7.1992-2.3984-8.3984l-242.4-82.801c-3.6016-1.1992-7.1992 2.3984-6 6l82.801 242.4c1.1992 3.6016 6 4.8008 8.3984 2.3984l55.199-55.199c2.3984-2.3984 4.8008-2.3984 7.1992 0l82.801 82.801c2.3984 2.3984 4.8008 2.3984 7.1992 0l33.602-33.602c2.3984-2.3984 2.3984-4.8008 0-7.1992l-82.801-82.801c-2.3984-1.1992-2.3984-4.8008 0-7.1992z"/>
</svg>
