<?xml version="1.0" encoding="UTF-8"?>
<svg width="1200pt" height="1200pt" version="1.1" viewBox="0 0 1200 1200" xmlns="http://www.w3.org/2000/svg">
 <g>
  <path d="m641.1 414.93h-8.9727c-6.3203-0.003907-12.453-2.1289-17.414-6.043-4.9609-3.9102-8.4609-9.3789-9.9336-15.52l-7.5938-31.746c-0.97656-6.5977 1.1328-13.281 5.7227-18.125s11.145-7.3164 17.789-6.6992h31.875c6.6445-0.61719 13.203 1.8516 17.789 6.6992 4.5859 4.8438 6.6914 11.527 5.7148 18.125l-7.6406 31.746c-1.4727 6.1406-4.9727 11.605-9.9297 15.52-4.9609 3.9102-11.09 6.0391-17.406 6.043z"/>
  <path d="m697.39 566.7-34.848-161.7h-51.844l-34.855 161.7c-0.92188 4.6719-0.35547 9.5156 1.625 13.848 1.9805 4.3281 5.2734 7.9258 9.4102 10.285l39.777 24.992c2.9883 1.8789 6.4453 2.875 9.9766 2.875 3.5273 0 6.9844-0.99609 9.9727-2.875l39.777-24.992h0.003906c4.1328-2.3594 7.418-5.9609 9.3945-10.289 1.9766-4.332 2.5391-9.1758 1.6094-13.844z"/>
  <path d="m898.41 919.25c-2.5586-40.312 9.6484-96.066 34.332-128.09 98.438-127.74 142.11-238.43 121.5-374.64-33.395-220.76-189.31-337.7-404.88-348.76-235.59-12.188-437.34 139.12-430.85 347.81 0.85156 27.543 5.6719 68.109 5.5586 94.613-0.21484 94.145-81.676 132.82-83.242 162.78-2.5781 49.199 55.219 33.836 75.602 103.43 25.875 88.359-11.25 189.12 109.2 182.9 48.047-1.9297 126.13-20.578 159.59 10.539 21.336 19.836 38.523 106.43 45.227 144.74l0.003906-0.003906c0.90625 5.1484 3.5977 9.8125 7.6055 13.172s9.0742 5.1953 14.305 5.1836h361.58c6.9961 0.019531 13.594-3.2578 17.805-8.8438 4.207-5.5898 5.5391-12.836 3.5898-19.555-12.027-41.398-32.82-120.47-36.93-185.28zm37.5-553.12c19.07 50.727 25.172 105.41 17.754 159.09-7.418 53.684-28.121 104.66-60.23 148.32-3.8555 5.1992-11.199 6.2852-16.398 2.4297-5.1953-3.8594-6.2852-11.199-2.4258-16.398 29.77-40.48 48.961-87.758 55.84-137.54 6.875-49.777 1.2148-100.48-16.465-147.52-1.1094-2.9062-1.0195-6.1289 0.25-8.9688 1.2695-2.8359 3.6133-5.0547 6.5195-6.1641 6.0469-2.3086 12.82 0.72266 15.129 6.7695zm-54.871-74.793c2.5391-1.7969 5.6875-2.5117 8.7539-1.9844s5.7969 2.2539 7.5859 4.7969c2 2.8203 3.9648 5.6836 5.8984 8.5977 5.2227 7.8828 10.152 16.086 14.664 24.375 3.0898 5.6953 0.97656 12.816-4.7188 15.91-5.6953 3.0898-12.816 0.97656-15.906-4.7188-4.1914-7.6875-8.7656-15.301-13.613-22.621-1.8008-2.7109-3.6289-5.3828-5.4844-8.0078v0.003907c-1.793-2.543-2.5039-5.6914-1.9727-8.7539s2.2578-5.7891 4.8047-7.5781zm-52.293-53.477c2.0312-2.3477 4.9141-3.7969 8.0117-4.0195 3.0977-0.22656 6.1562 0.78906 8.5078 2.8203 9.8086 8.4961 19.098 17.574 27.816 27.188 4.3477 4.7969 3.9883 12.207-0.80859 16.559-4.793 4.3477-12.207 3.9883-16.555-0.80859-8.0781-8.9062-16.688-17.312-25.781-25.18-2.3594-2.0352-3.8086-4.9258-4.0312-8.0312-0.22656-3.1055 0.79688-6.1758 2.8398-8.5273zm-63.676-39.375c2.9492-5.7578 9.9961-8.0508 15.77-5.125 11.559 5.8828 22.754 12.457 33.523 19.688 5.375 3.6172 6.8008 10.91 3.1797 16.281-3.6211 5.375-10.91 6.8008-16.285 3.1797-9.9844-6.7031-20.367-12.797-31.086-18.254-2.7773-1.4023-4.8828-3.8516-5.8516-6.8086-0.97266-2.9531-0.72656-6.1758 0.67578-8.9492zm-71.25-23.043c1.4766-6.2891 7.7695-10.195 14.062-8.7266 12.625 2.9648 25.062 6.6797 37.246 11.129 2.9805 1.0195 5.4219 3.1953 6.7773 6.0352 1.3555 2.8438 1.5117 6.1094 0.43359 9.0664s-3.3047 5.3555-6.1719 6.6562-6.1367 1.3906-9.0703 0.25391c-11.309-4.1211-22.852-7.5664-34.566-10.312-6.2969-1.4844-10.203-7.793-8.7188-14.09zm-375.55 127.66 40.734-13.211c5.582-1.8086 11.652-1.3242 16.879 1.3438 5.2266 2.668 9.1758 7.3047 10.98 12.891l13.199 40.727 0.003906-0.003906c0.99609 2.9688 0.76172 6.207-0.64453 9.0039-1.4102 2.793-3.875 4.9102-6.8516 5.875-2.9766 0.96484-6.2148 0.69922-8.9961-0.73828s-4.8672-3.9258-5.8047-6.9102l-12.797-39.477-39.488 12.797 0.003907-0.003906c-2.9766 1.0273-6.2383 0.8125-9.0547-0.59375-2.8125-1.4023-4.9453-3.8828-5.9141-6.875-0.96875-2.9922-0.69531-6.25 0.76172-9.0391 1.457-2.7891 3.9766-4.8711 6.9883-5.7852zm59.766 342.09c-5.4688 3.457-12.703 1.8398-16.172-3.6211-28.781-45.914-45.641-98.285-49.055-152.36-3.4141-54.078 6.7305-108.15 29.508-157.32 1.2734-2.8828 3.6562-5.1328 6.6094-6.2383 2.9531-1.1055 6.2266-0.97266 9.082 0.36328 2.8555 1.3398 5.0508 3.7734 6.0898 6.75 1.0391 2.9766 0.83594 6.2461-0.56641 9.0703-21.121 45.598-30.523 95.742-27.359 145.89 3.1641 50.152 18.797 98.715 45.48 141.3 3.4648 5.4648 1.8477 12.703-3.6172 16.172zm52.5 58.754v-0.003906c-2.1289 2.2656-5.0664 3.5938-8.1719 3.6914-3.1055 0.09375-6.1211-1.0469-8.3867-3.1758-2.5234-2.3633-5.0078-4.7812-7.5-7.2266-6.7227-6.7422-13.191-13.801-19.238-21-4.1016-4.9609-3.4336-12.305 1.5-16.445 4.9336-4.1367 12.281-3.5234 16.453 1.3789 5.625 6.6836 11.617 13.238 17.812 19.473 2.2891 2.2773 4.6133 4.5391 6.9648 6.75h0.003906c2.2695 2.1211 3.6016 5.0625 3.6992 8.168 0.10156 3.1055-1.0391 6.125-3.168 8.3867zm61.961 42.008h-0.003906c-3.1719 5.6289-10.305 7.625-15.938 4.4609-11.301-6.3594-22.211-13.402-32.66-21.082-2.5859-1.8086-4.3359-4.5859-4.8477-7.6992-0.51172-3.1133 0.25-6.3008 2.1211-8.8438 1.8672-2.543 4.6836-4.2266 7.8086-4.6641 3.1211-0.44141 6.293 0.39844 8.793 2.3242 9.6914 7.1172 19.805 13.645 30.281 19.547 5.6211 3.1875 7.5977 10.332 4.4141 15.957zm70.227 25.914v-0.003907c-1.4102 5.0586-6 8.5703-11.25 8.5977-1.0586-0.003907-2.1133-0.15234-3.1328-0.42969-12.504-3.4688-24.785-7.6875-36.777-12.637-5.9805-2.4688-8.8281-9.3164-6.3633-15.297 2.4688-5.9805 9.3164-8.8281 15.297-6.3594 11.121 4.582 22.508 8.4883 34.098 11.699 6.2109 1.7617 9.8281 8.207 8.0977 14.426zm62.672 19.773h-0.35547l-0.003907-0.003906c-12.965-0.39062-25.895-1.5586-38.719-3.4961-3.1367-0.39062-5.9805-2.0352-7.8906-4.5547-1.9062-2.5195-2.7188-5.7031-2.2461-8.8281s2.1914-5.9297 4.7578-7.7695c2.5703-1.8438 5.7734-2.5703 8.8867-2.0156 11.895 1.7969 23.891 2.8789 35.914 3.2344 6.4727 0.097657 11.645 5.4219 11.547 11.895-0.097656 6.4727-5.4219 11.641-11.891 11.543zm9.6836-86.934v-0.003906c-60.918 0-119.34-24.199-162.41-67.273s-67.273-101.5-67.273-162.41c0-60.918 24.199-119.34 67.273-162.41 43.074-43.074 101.5-67.273 162.41-67.273s119.34 24.199 162.41 67.273c43.074 43.074 67.273 101.5 67.273 162.41 0 40.32-10.617 79.934-30.777 114.85-20.164 34.918-49.164 63.914-84.082 84.07-34.922 20.16-74.535 30.77-114.86 30.766zm231.19 6.8047v-0.003906c-5.4336-0.003906-10.676-2.0078-14.73-5.625-4.0586-3.6172-6.6406-8.5977-7.2656-13.996l-4.8281-42.555c-0.36719-3.0977 0.51172-6.2148 2.4492-8.6602 1.9336-2.4492 4.7656-4.0195 7.8672-4.375 3.0977-0.35156 6.2109 0.54688 8.6484 2.5 2.4336 1.9492 3.9922 4.7891 4.3242 7.8945l4.6875 41.25 41.25-4.6875c6.4336-0.73047 12.242 3.8906 12.969 10.324 0.73047 6.4336-3.8906 12.242-10.324 12.973l-42.543 4.8281c-0.83984 0.089843-1.6797 0.13281-2.5234 0.12891z"/>
 </g>
</svg>
